<?xml version="1.0" encoding="UTF-8"?>
<svg version="1.1" xmlns="http://www.w3.org/2000/svg" width="1024" height="1024">
<path d="M0 0 C0 5.61 0 11.22 0 17 C1.85625 17.309375 1.85625 17.309375 3.75 17.625 C14.83492134 20.13874594 24.23177487 25.78059008 30.52734375 35.3125 C33.8909534 41.39624614 35.81232265 48.02281834 36 55 C34 57 34 57 30.0625 57.1875 C16.64945652 56.88315217 16.64945652 56.88315217 11 55 C11 55.66 11 56.32 11 57 C7.56039602 55.60379712 6.29014852 54.25204428 4.5625 51 C2.85924811 48.08013962 2.25708804 47.13711362 -0.8125 45.5 C-1.8953125 45.2525 -1.8953125 45.2525 -3 45 C-3 44.34 -3 43.68 -3 43 C-12.45101126 41.62530745 -21.04136413 41.02880714 -30 45 C-32.67185465 47.23563348 -34.45234181 48.90468363 -36 52 C-36.61694713 57.57882314 -36.61694713 57.57882314 -34.33837891 62.47314453 C-26.68854229 70.73956853 -11.27684126 71.97887272 -0.72851562 74.22851562 C12.06993713 77.12332266 23.23108289 81.94625987 32 92 C38.81099388 102.82853865 39.8072149 114.96392551 37.31640625 127.41796875 C33.62863937 138.26704227 26.23584615 146.33046641 16.25 151.75 C10.94810871 154.28675106 5.79924549 155.18215769 0 156 C0 162.27 0 168.54 0 175 C-3.35952356 176.11984119 -5.66910457 176.028066 -9.19921875 175.87890625 C-10.40771484 175.83056641 -11.61621094 175.78222656 -12.86132812 175.73242188 C-14.12396484 175.67634766 -15.38660156 175.62027344 -16.6875 175.5625 C-17.96173828 175.51029297 -19.23597656 175.45808594 -20.54882812 175.40429688 C-23.69942725 175.27449691 -26.84974458 175.13788997 -30 175 C-30 168.73 -30 162.46 -30 156 C-31.4025 155.938125 -32.805 155.87625 -34.25 155.8125 C-46.51728102 154.51299989 -55.93813047 148.48990611 -63.625 138.9921875 C-68.2787114 132.15012371 -70.1166256 124.12704451 -71 116 C-65.46317774 114.74745248 -60.09038104 114.81601329 -54.4375 114.8125 C-53.39658203 114.80025391 -52.35566406 114.78800781 -51.28320312 114.77539062 C-49.77983398 114.77249023 -49.77983398 114.77249023 -48.24609375 114.76953125 C-46.87988892 114.76336792 -46.87988892 114.76336792 -45.48608398 114.75708008 C-42.80493629 115.01906004 -41.21489328 115.4706319 -39 117 C-38.2833793 119.31847874 -37.61757973 121.65319703 -37 124 C-35.47992158 125.77277259 -35.47992158 125.77277259 -34 127 C-34 127.66 -34 128.32 -34 129 C-22.34762513 132.64543571 -10.39508734 134.24679897 1.046875 129.16796875 C4.37000867 127.18073482 5.76504529 125.70486413 7 122 C7.37038573 116.99979268 7.20042937 113.94719622 4 110 C-0.56520196 106.50936582 -4.72463943 104.94409904 -10.1875 103.5625 C-10.96561035 103.35423584 -11.7437207 103.14597168 -12.54541016 102.93139648 C-16.67851935 101.8314095 -20.82534676 100.79449509 -24.98046875 99.78125 C-39.24382358 96.2621068 -53.06436754 91.93220386 -61.8125 79.25 C-67.43961786 69.40254375 -68.21424845 58.90256868 -65.875 48 C-63.08610768 37.84791065 -57.37016688 28.7722776 -48.203125 23.34375 C-42.29767014 20.28610332 -36.36389687 17.90916906 -30 16 C-30 10.72 -30 5.44 -30 0 C-26.04911485 -0.16568228 -22.09830816 -0.32812298 -18.14697266 -0.48217773 C-16.14079929 -0.56187238 -14.13484924 -0.64712518 -12.12890625 -0.73242188 C-10.87207031 -0.78076172 -9.61523438 -0.82910156 -8.3203125 -0.87890625 C-6.57645264 -0.94960327 -6.57645264 -0.94960327 -4.79736328 -1.02172852 C-2 -1 -2 -1 0 0 Z " fill="#01428E" transform="translate(155,415)"/>
<path d="M0 0 C3.97915159 -0.02886984 7.95827653 -0.04675406 11.9375 -0.0625 C13.07380859 -0.07087891 14.21011719 -0.07925781 15.38085938 -0.08789062 C16.46044922 -0.09111328 17.54003906 -0.09433594 18.65234375 -0.09765625 C20.15269165 -0.10551147 20.15269165 -0.10551147 21.68334961 -0.11352539 C24 0 24 0 25 1 C25.12197808 2.38050858 25.17768899 3.76697647 25.20532227 5.15258789 C25.22526749 6.03342545 25.24521271 6.914263 25.26576233 7.8217926 C25.28247482 8.77907761 25.29918732 9.73636261 25.31640625 10.72265625 C25.33718735 11.69786728 25.35796844 12.67307831 25.37937927 13.67784119 C25.44498412 16.8059863 25.50381028 19.93421822 25.5625 23.0625 C25.60567483 25.1777435 25.64928877 27.29297809 25.69335938 29.40820312 C25.80067655 34.60537587 25.9024222 39.80263577 26 45 C26.78467651 44.28336182 26.78467651 44.28336182 27.58520508 43.55224609 C28.63550903 42.60986084 28.63550903 42.60986084 29.70703125 41.6484375 C30.39514893 41.02630371 31.0832666 40.40416992 31.79223633 39.76318359 C39.34975551 33.72753132 48.56763195 32.10289978 58 33 C69.90302818 35.42144936 79.30457066 40.62463556 86.46875 50.54296875 C92.71953234 60.57292307 95.38620977 70.47405684 95.3125 82.1875 C95.30512817 83.57352417 95.30512817 83.57352417 95.29760742 84.98754883 C95.03853985 100.19016538 91.01453727 112.61413596 80.44921875 123.73828125 C72.64475509 130.945274 63.03305068 134.99739241 52.375 135.3125 C43.40517253 134.91419505 36.23305985 132.45743505 29 127 C27.2109375 124.8046875 27.2109375 124.8046875 26 123 C25.67 125.97 25.34 128.94 25 132 C16.42 132 7.84 132 -1 132 C-0.99476318 128.92171875 -0.98952637 125.8434375 -0.98413086 122.671875 C-0.96754514 112.48988694 -0.9565088 102.30789827 -0.94818783 92.12590027 C-0.94297405 85.95388066 -0.93590371 79.78187491 -0.92456055 73.60986328 C-0.91367821 67.65116235 -0.90771182 61.69247475 -0.90512276 55.73376465 C-0.90327815 53.4628478 -0.89967611 51.19193167 -0.89426994 48.92102051 C-0.88698858 45.73509152 -0.88601205 42.54921725 -0.88647461 39.36328125 C-0.88287933 38.42891739 -0.87928406 37.49455353 -0.87557983 36.53187561 C-0.88191183 32.48921232 -0.99336051 28.5647509 -1.53443909 24.55541992 C-2.0356545 20.72771187 -1.57136785 17.809119 -1 14 C-0.96357331 10.85516201 -0.99937655 7.71855576 -1.0625 4.57421875 C-1 2 -1 2 0 0 Z M34 58 C34 58.66 34 59.32 34 60 C33.01 60.33 32.02 60.66 31 61 C29.5677171 63.18009111 29.5677171 63.18009111 28.375 65.8125 C27.94960938 66.68519531 27.52421875 67.55789063 27.0859375 68.45703125 C23.42916556 77.02019143 23.53180812 89.46019374 26.1875 98.3125 C27.73984269 102.02651616 29.86116547 104.44513468 33 107 C33.9075 107.7425 34.815 108.485 35.75 109.25 C41.87154376 112.54621587 48.19422937 112.60512018 54.86328125 110.84765625 C61.07744196 108.38244076 64.53833937 103.85176955 67.2734375 97.9296875 C70.57339766 89.16527718 70.27567679 76.97915344 67.1015625 68.18359375 C64.40331999 62.8349499 60.75800136 58.42440849 55.1875 56 C47.64154446 53.7479125 40.91684119 54.39121329 34 58 Z " fill="#01428F" transform="translate(487,436)"/>
<path d="M0 0 C1.5003479 0.07069702 1.5003479 0.07069702 3.03100586 0.14282227 C4.1105957 0.19116211 5.19018555 0.23950195 6.30249023 0.28930664 C7.43879883 0.34538086 8.57510742 0.40145508 9.74584961 0.45922852 C11.45611328 0.53753906 11.45611328 0.53753906 13.20092773 0.61743164 C16.02864984 0.74757785 18.85605961 0.8825573 21.68334961 1.02172852 C22.81634391 4.64374676 22.80377242 8.03002894 22.796875 11.80981445 C22.79702103 12.48339493 22.79716705 13.1569754 22.7973175 13.85096741 C22.79662285 16.06937928 22.78885142 18.28770638 22.78100586 20.50610352 C22.77914009 22.04738316 22.77771694 23.5886634 22.77671814 25.12994385 C22.77290546 29.18070115 22.76308585 33.23142243 22.75201416 37.28216553 C22.74177317 41.41800448 22.73721476 45.55384928 22.73217773 49.68969727 C22.72146245 57.80039085 22.70440104 65.9110552 22.68334961 74.02172852 C24.12935777 72.42466295 25.57400122 70.82636168 27.01806641 69.22753906 C27.82269821 68.33761765 28.62733002 67.44769623 29.4563446 66.5308075 C31.95510243 63.7155553 34.23976196 60.84641041 36.49584961 57.83422852 C36.91721191 57.30740479 37.33857422 56.78058105 37.77270508 56.23779297 C40.15905713 53.22569222 42.11363234 50.28550617 43.85913086 46.85766602 C46.45441099 42.23642078 48.82545806 38.44411717 53.68334961 36.02172852 C64.194772 34.14798975 75.10636941 35.10521983 85.68334961 36.02172852 C83.57818452 39.62131473 81.40656961 42.59433503 78.55834961 45.64672852 C75.31247086 49.1867322 72.20044709 52.78476216 69.18334961 56.52172852 C65.52419769 61.05241224 61.6966964 65.375351 57.72631836 69.63500977 C55.45484842 72.28867732 53.56924625 75.08481532 51.68334961 78.02172852 C63.1001497 95.5765914 63.1001497 95.5765914 74.68334961 113.02172852 C76.45610768 115.66627788 78.22635664 118.31249367 79.99584961 120.95922852 C80.41713135 121.58700195 80.83841309 122.21477539 81.27246094 122.86157227 C81.67231201 123.45969727 82.07216309 124.05782227 82.48413086 124.67407227 C82.83644775 125.1999292 83.18876465 125.72578613 83.55175781 126.26757812 C84.98353693 128.48706743 86.33323318 130.75185887 87.68334961 133.02172852 C83.39704372 133.27046513 79.11463118 133.45102621 74.82324219 133.57104492 C73.36676859 133.62109556 71.91079165 133.68917023 70.45605469 133.77612305 C58.48732438 134.4731714 58.48732438 134.4731714 54.40209961 131.1862793 C52.54116572 128.56103328 51.12428778 125.89795134 49.68334961 123.02172852 C48.39118291 120.98174414 47.08060241 118.95332923 45.75366211 116.93579102 C44.43572694 114.84121548 43.12064366 112.74484292 41.80834961 110.64672852 C41.13288086 109.58067383 40.45741211 108.51461914 39.76147461 107.41625977 C39.11952148 106.39145508 38.47756836 105.36665039 37.81616211 104.31079102 C37.23753418 103.38991699 36.65890625 102.46904297 36.06274414 101.52026367 C34.83332197 99.29337757 34.13604243 97.50608925 33.68334961 95.02172852 C33.12905273 95.52704102 32.57475586 96.03235352 32.00366211 96.55297852 C31.27920898 97.20266602 30.55475586 97.85235352 29.80834961 98.52172852 C29.08905273 99.17141602 28.36975586 99.82110352 27.62866211 100.49047852 C25.68334961 102.02172852 25.68334961 102.02172852 23.68334961 102.02172852 C22.71511465 112.34270114 22.20093539 122.67001293 21.68334961 133.02172852 C13.43334961 133.02172852 5.18334961 133.02172852 -3.31665039 133.02172852 C-3.33919706 115.82833577 -3.35762935 98.63495557 -3.36846256 81.44155216 C-3.37362561 73.45891352 -3.38066848 65.47628469 -3.39208984 57.49365234 C-3.40203641 50.53849053 -3.40850375 43.58333582 -3.41073889 36.62816709 C-3.41204604 32.94320925 -3.41513218 29.25827174 -3.42238045 25.57332039 C-3.43039379 21.46635143 -3.43064155 17.35941815 -3.43017578 13.25244141 C-3.43377106 12.0217392 -3.43736633 10.79103699 -3.44107056 9.52304077 C-3.43969589 8.41099777 -3.43832123 7.29895477 -3.43690491 6.1532135 C-3.4378267 5.1807219 -3.43874849 4.2082303 -3.43969822 3.20626926 C-3.2684936 0.16677254 -3.05519339 0.02865552 0 0 Z " fill="#01428E" transform="translate(790.316650390625,434.978271484375)"/>
<path d="M0 0 C13.05240307 12.29021895 13.95853282 30.533008 15.125 47.25 C12.31284488 48.65607756 9.9845578 48.36950486 6.83935547 48.36352539 C6.19532776 48.36367142 5.55130005 48.36381744 4.88775635 48.3639679 C2.75586598 48.3632704 0.62406263 48.35548566 -1.5078125 48.34765625 C-2.98468986 48.34579149 -4.46156784 48.34436786 -5.93844604 48.34336853 C-9.82812199 48.33954792 -13.71776067 48.32972152 -17.60742188 48.31866455 C-21.57551571 48.30844064 -25.54361555 48.30386881 -29.51171875 48.29882812 C-37.29949616 48.28809885 -45.08724286 48.27102789 -52.875 48.25 C-52.25103297 49.97953968 -51.62577872 51.708615 -51 53.4375 C-50.65195312 54.40042969 -50.30390625 55.36335937 -49.9453125 56.35546875 C-49.59210938 57.31066406 -49.23890625 58.26585937 -48.875 59.25 C-48.53855469 60.17039062 -48.20210938 61.09078125 -47.85546875 62.0390625 C-47.06577166 64.35922996 -47.06577166 64.35922996 -45.0625 65.4375 C-43.9796875 65.8396875 -43.9796875 65.8396875 -42.875 66.25 C-42.111875 66.600625 -41.34875 66.95125 -40.5625 67.3125 C-32.71021012 70.05167089 -25.45551565 69.29661338 -17.9375 65.9375 C-15.67079221 64.37793493 -15.67079221 64.37793493 -14.9453125 61.6640625 C-12.875 59.25 -12.875 59.25 -10.57299805 58.84399414 C-7.59736319 58.75666601 -4.66188919 58.81582895 -1.6875 58.9375 C-0.65173828 58.96005859 0.38402344 58.98261719 1.45117188 59.00585938 C4.01056404 59.06483154 6.56705951 59.14707433 9.125 59.25 C9.455 58.59 9.785 57.93 10.125 57.25 C10.785 57.58 11.445 57.91 12.125 58.25 C11.3967296 67.47475838 5.98699241 76.2295727 -0.875 82.25 C-14.8052652 91.81892049 -28.59728024 91.6700285 -44.875 91.25 C-44.875 90.59 -44.875 89.93 -44.875 89.25 C-45.96941406 89.06050781 -45.96941406 89.06050781 -47.0859375 88.8671875 C-57.9546059 86.462076 -66.41354777 78.76269463 -72.57421875 69.76953125 C-79.99957245 56.1006369 -81.35859502 38.10928073 -76.9765625 23.22265625 C-72.16589061 10.24066579 -65.67180679 -0.41184522 -52.875 -6.75 C-35.14314641 -13.9696133 -15.27802339 -11.81948183 0 0 Z M-47.0625 16.375 C-50.23478681 20.26334105 -51.63154098 24.43977693 -52.875 29.25 C-48.42172363 30.36235685 -44.07051227 30.37854871 -39.51171875 30.34765625 C-38.71973587 30.3462413 -37.92775299 30.34482635 -37.11177063 30.34336853 C-34.59530781 30.33779457 -32.07893569 30.32524693 -29.5625 30.3125 C-27.85091275 30.30748163 -26.13932409 30.30291931 -24.42773438 30.29882812 C-20.24345492 30.28783368 -16.05924281 30.27058707 -11.875 30.25 C-12.00390625 28.99703125 -12.1328125 27.7440625 -12.265625 26.453125 C-12.33813477 25.74833008 -12.41064453 25.04353516 -12.48535156 24.31738281 C-13.5132105 18.86380546 -17.47384365 15.25566775 -21.875 12.25 C-30.82026421 8.04843651 -40.21538663 9.17718082 -47.0625 16.375 Z " fill="#01428E" transform="translate(461.875,479.75)"/>
<path d="M0 0 C10.67422198 11.43527254 10.88650771 25.01252633 10.76953125 39.92578125 C10.76579133 41.3449534 10.762949 42.76412816 10.76095581 44.18330383 C10.75339624 47.88055821 10.73381586 51.57765017 10.71154785 55.27484131 C10.69092192 59.0627625 10.68191865 62.85071047 10.671875 66.63867188 C10.65056093 74.04305063 10.6154436 81.44726292 10.57421875 88.8515625 C2.32421875 88.8515625 -5.92578125 88.8515625 -14.42578125 88.8515625 C-14.92078125 85.3865625 -14.92078125 85.3865625 -15.42578125 81.8515625 C-16.02003906 82.32207031 -16.61429687 82.79257812 -17.2265625 83.27734375 C-27.15564534 90.73573724 -37.03228512 93.2073314 -49.42578125 91.8515625 C-55.51690809 90.38797018 -61.23958918 88.43116246 -66.42578125 84.8515625 C-66.42578125 84.1915625 -66.42578125 83.5315625 -66.42578125 82.8515625 C-67.08578125 82.8515625 -67.74578125 82.8515625 -68.42578125 82.8515625 C-73.63540484 76.70687827 -75.94494972 70.33932347 -76.80078125 62.3515625 C-75.83671743 53.35363351 -73.22523613 46.96696759 -66.42578125 40.8515625 C-52.35850422 29.69885872 -33.54640958 29.70646904 -16.42578125 28.8515625 C-16.30719936 23.58402997 -16.47309738 20.33149665 -19.42578125 15.8515625 C-24.687549 11.93896597 -29.95115261 11.18594647 -36.42578125 11.8515625 C-41.61356735 13.49436143 -44.45135005 15.2755145 -47.42578125 19.8515625 C-47.75578125 20.8415625 -48.08578125 21.8315625 -48.42578125 22.8515625 C-56.34578125 22.8515625 -64.26578125 22.8515625 -72.42578125 22.8515625 C-71.23364248 13.3144523 -68.32632018 4.50047196 -60.4921875 -1.671875 C-43.55075266 -13.70998294 -15.97548003 -14.14897587 0 0 Z M-26.48828125 46.6640625 C-27.72094727 46.76944336 -27.72094727 46.76944336 -28.97851562 46.87695312 C-35.67211888 47.535254 -42.27066236 48.72185725 -47.92578125 52.5390625 C-50.06240662 55.83302661 -50.60403259 58.99687722 -50.42578125 62.8515625 C-49.21773111 66.61783646 -48.11617824 68.32048789 -44.98828125 70.7265625 C-37.22891888 73.17688746 -29.53995839 72.76747514 -22.26953125 69.06640625 C-19.01753209 66.92366952 -17.14133261 64.28266522 -15.42578125 60.8515625 C-15.35410775 58.29998595 -15.33269683 55.77683279 -15.36328125 53.2265625 C-15.36779297 52.52015625 -15.37230469 51.81375 -15.37695312 51.0859375 C-15.3887425 49.34110975 -15.40667801 47.5963255 -15.42578125 45.8515625 C-19.1274191 45.8515625 -22.80643493 46.30901734 -26.48828125 46.6640625 Z " fill="#02418D" transform="translate(277.42578125,479.1484375)"/>
<path d="M0 0 C8.58 0 17.16 0 26 0 C25.97679687 3.91488281 25.95359375 7.82976562 25.9296875 11.86328125 C25.91406045 15.68269528 25.90193309 19.50210565 25.89013672 23.3215332 C25.88012021 25.96250012 25.86650318 28.60345606 25.84912109 31.24438477 C25.82468103 35.05487793 25.81347303 38.86522361 25.8046875 42.67578125 C25.79436493 43.84393875 25.78404236 45.01209625 25.77340698 46.21565247 C25.52628411 59.93570032 25.52628411 59.93570032 31 72 C36.3583714 75.98443002 42.60530813 75.77147757 49 75 C52.87527021 73.73543814 55.36743823 71.82233031 57.875 68.5625 C59.86089317 64.03907667 60.13427523 59.73500891 60.20532227 54.83276367 C60.22526749 53.61187546 60.24521271 52.39098724 60.26576233 51.13310242 C60.28247482 49.82460831 60.29918732 48.5161142 60.31640625 47.16796875 C60.3369958 45.80747372 60.35799278 44.44698481 60.37937927 43.08650208 C60.43439347 39.51751677 60.48389317 35.94847573 60.53222656 32.37939453 C60.58259306 28.73269742 60.63814941 25.08607959 60.69335938 21.43945312 C60.80117618 14.29303007 60.90035944 7.14656046 61 0 C69.91 0 78.82 0 88 0 C87.67 2.31 87.34 4.62 87 7 C86.91078216 9.74080584 86.86299786 12.45519215 86.87060547 15.19506836 C86.86885315 15.98303299 86.86710083 16.77099762 86.86529541 17.58283997 C86.86092072 20.16853079 86.86379967 22.75415232 86.8671875 25.33984375 C86.86651313 27.14913445 86.865542 28.95842506 86.86428833 30.76771545 C86.86281724 34.55275336 86.86494675 38.33776759 86.86962891 42.12280273 C86.87532173 46.95896002 86.87204627 51.79506175 86.86605644 56.631217 C86.86243146 60.36569126 86.86359838 64.10015249 86.86618423 67.83462715 C86.86684836 69.61710174 86.86604318 71.39957753 86.86370468 73.1820507 C86.86114673 75.67991106 86.86506293 78.17768327 86.87060547 80.67553711 C86.86756912 81.76603867 86.86756912 81.76603867 86.86447144 82.87857056 C86.88428262 87.73220561 87.38902216 92.11217728 88 97 C79.42 97.33 70.84 97.66 62 98 C61.25044562 95.0017825 60.58929011 92.03063487 60 89 C59.59910156 89.38671875 59.19820312 89.7734375 58.78515625 90.171875 C51.03923631 97.2679105 42.59140756 100.41315384 32.140625 100.2734375 C22.53095263 99.43677448 14.3518672 96.37782199 8 89 C-0.19673997 78.6518847 -0.42582415 67.11655812 -0.29296875 54.4921875 C-0.28736233 52.91464647 -0.28309719 51.33710016 -0.28010559 49.759552 C-0.26873898 45.63970104 -0.23934404 41.52017548 -0.20599365 37.40045166 C-0.17511461 33.18367919 -0.16156243 28.96685333 -0.14648438 24.75 C-0.11446494 16.4998352 -0.06176569 8.24999577 0 0 Z M61 86 C62 88 62 88 62 88 Z " fill="#01428F" transform="translate(592,471)"/>
<path d="M0 0 C5.74000367 5.8862458 8.73343191 12.89396423 10 21 C7.44276771 22.27861615 5.63262898 22.11336609 2.7734375 22.09765625 C1.7421875 22.09443359 0.7109375 22.09121094 -0.3515625 22.08789062 C-1.43179688 22.07951172 -2.51203125 22.07113281 -3.625 22.0625 C-5.25695312 22.05573242 -5.25695312 22.05573242 -6.921875 22.04882812 C-9.61463789 22.03701776 -12.30729188 22.02054778 -15 22 C-15.4434375 20.88496094 -15.886875 19.76992188 -16.34375 18.62109375 C-17.69470696 14.92714858 -17.69470696 14.92714858 -20.5 13.0625 C-26.41791304 11.26599068 -32.42954134 10.81758902 -38.125 13.4375 C-39.89343188 14.8632533 -39.89343188 14.8632533 -41 16 C-41.07179964 17.51928038 -41.08392007 19.04167482 -41.0625 20.5625 C-41.05347656 21.38878906 -41.04445313 22.21507812 -41.03515625 23.06640625 C-41.02355469 23.70449219 -41.01195312 24.34257812 -41 25 C-37.51865213 26.48518569 -34.16299444 27.50344555 -30.46484375 28.296875 C-1.0209637 34.82817779 -1.0209637 34.82817779 5.88671875 44.2421875 C10.96932754 52.26735927 11.03914904 60.24553126 9.6015625 69.58984375 C7.57933382 77.06158478 2.57773756 82.72502557 -3.875 86.828125 C-16.97883031 93.71432154 -30.82756439 95.14507145 -45.18359375 91.03515625 C-55.18213398 87.36024202 -62.72459845 81.14958321 -67.375 71.5 C-69.28669787 67.17790047 -69.36254345 64.09965243 -70 59 C-61.75 59 -53.5 59 -45 59 C-43.68 61.97 -42.36 64.94 -41 68 C-37.34667731 71.54261594 -32.70255235 71.73884781 -27.796875 72.0703125 C-23.55155313 71.96358653 -20.78379924 70.9262978 -17 69 C-14.67250655 65.50875983 -14.49700684 64.10777749 -15 60 C-18.11051014 55.05146114 -23.68456498 54.37688979 -29 53 C-56.79313314 45.79169096 -56.79313314 45.79169096 -63 36 C-66.9494085 29.06225578 -67.23468008 20.90384236 -65.30859375 13.25390625 C-61.92480702 3.95203228 -56.70919755 -1.31621059 -47.9296875 -5.77734375 C-32.95937256 -12.02495518 -12.70658819 -10.3665167 0 0 Z " fill="#02428E" transform="translate(942,478)"/>
<path d="M0 0 C8.62005351 7.37216157 12.80340553 14.63754204 15.75390625 25.5 C15.75390625 26.16 15.75390625 26.82 15.75390625 27.5 C3.37890625 27.995 3.37890625 27.995 -9.24609375 28.5 C-11.22609375 25.2 -13.20609375 21.9 -15.24609375 18.5 C-21.46081979 14.77116438 -26.07043922 13.67385556 -33.24609375 14.5 C-38.69295946 16.11460662 -42.07950195 18.86258133 -45.23828125 23.5234375 C-50.135546 33.12815053 -50.52280112 45.31563927 -47.24609375 55.5 C-45.07566436 61.3881984 -42.38123801 64.89447318 -37.24609375 68.5 C-30.90500013 70.61369787 -22.88193327 70.65476051 -16.68359375 68 C-12.35731172 65.2568265 -12.35731172 65.2568265 -9.24609375 57.5 C3.12890625 57.005 3.12890625 57.005 15.75390625 56.5 C16.75390625 58.5 16.75390625 58.5 16.00390625 61.44140625 C11.80577754 73.60286034 6.10660968 82.44853986 -5.4375 88.68359375 C-17.67963214 94.49594518 -31.78103714 95.61642341 -44.76171875 91.46875 C-56.57848054 86.86095609 -65.84141053 79.08381801 -71.24609375 67.5 C-78.15002177 50.70486742 -77.55360214 33.26081 -70.72265625 16.54296875 C-68.48611475 11.93379989 -65.73124594 8.23409163 -62.24609375 4.5 C-61.67375 3.86320312 -61.10140625 3.22640625 -60.51171875 2.5703125 C-45.69509442 -12.18299292 -16.34266439 -12.40429935 0 0 Z " fill="#01418E" transform="translate(763.24609375,477.5)"/>
<path d="M0 0 C1.08398438 2.32788086 1.08398438 2.32788086 2.09375 5.46484375 C2.47917969 6.64216064 2.86460937 7.81947754 3.26171875 9.0324707 C3.67455775 10.33412221 4.08731606 11.63579932 4.5 12.9375 C4.93243488 14.26885028 5.36604874 15.59981813 5.80078125 16.93041992 C7.99037202 23.65394999 10.12637879 30.3946562 12.26989746 37.13298035 C13.26744166 40.26502044 14.2696238 43.39557014 15.27172852 46.52615356 C15.99469179 48.79583533 16.70769168 51.06848357 17.41992188 53.34155273 C17.86295221 54.73431695 18.30629538 56.1269817 18.75 57.51953125 C19.33007812 59.36188354 19.33007812 59.36188354 19.921875 61.24145508 C20.69415051 64.1263541 20.69415051 64.1263541 23 65 C23.25595947 63.74912598 23.51191895 62.49825195 23.77563477 61.20947266 C25.031652 55.57048936 26.78499894 50.13218264 28.58984375 44.6484375 C28.93503555 43.59016754 29.28022736 42.53189758 29.63587952 41.44155884 C30.36254255 39.2172041 31.09129102 36.99352967 31.82202148 34.77050781 C32.93583212 31.38007702 34.04162999 27.98710858 35.14648438 24.59375 C35.85629555 22.4243236 36.56656642 20.25504755 37.27734375 18.0859375 C37.60556625 17.0784848 37.93378876 16.0710321 38.2719574 15.03305054 C38.74243248 13.60589218 38.74243248 13.60589218 39.22241211 12.14990234 C39.62972816 10.90821793 39.62972816 10.90821793 40.04527283 9.64144897 C41.22603783 6.37461987 42.63165463 3.19280587 44 0 C52.58 -0.33 61.16 -0.66 70 -1 C71.39500568 3.18501705 69.70697451 5.82800062 68.0859375 9.7109375 C65.19157899 16.89022635 62.48031625 24.11098399 59.9140625 31.4140625 C59.39317802 32.89337502 59.39317802 32.89337502 58.86177063 34.40257263 C58.14654 36.43687841 57.43222024 38.47150466 56.71878052 40.50643921 C43.34483375 78.63791562 43.34483375 78.63791562 36 97 C26.1 97 16.2 97 6 97 C5.21238281 94.80730469 4.42476563 92.61460937 3.61328125 90.35546875 C2.51398985 87.29912991 1.41341921 84.24325284 0.3125 81.1875 C-0.12175797 79.98210068 -0.12175797 79.98210068 -0.56478882 78.75234985 C-4.90883509 66.70344796 -9.33044778 54.68567805 -13.8125 42.6875 C-19.09828633 28.53504329 -24.22218725 14.33343825 -29 0 C-24.72953289 -0.19656362 -20.45861919 -0.38070249 -16.1875 -0.5625 C-14.97255859 -0.61857422 -13.75761719 -0.67464844 -12.50585938 -0.73242188 C-11.34248047 -0.78076172 -10.17910156 -0.82910156 -8.98046875 -0.87890625 C-7.90692139 -0.9260376 -6.83337402 -0.97316895 -5.72729492 -1.02172852 C-3 -1 -3 -1 0 0 Z " fill="#01418D" transform="translate(316,471)"/>
<path d="M0 0 C8.91 0 17.82 0 27 0 C26.67 2.31 26.34 4.62 26 7 C25.91078216 9.74080584 25.86299786 12.45519215 25.87060547 15.19506836 C25.86885315 15.98303299 25.86710083 16.77099762 25.86529541 17.58283997 C25.86092072 20.16853079 25.86379967 22.75415232 25.8671875 25.33984375 C25.86651313 27.14913445 25.865542 28.95842506 25.86428833 30.76771545 C25.86281724 34.55275336 25.86494675 38.33776759 25.86962891 42.12280273 C25.87532173 46.95896002 25.87204627 51.79506175 25.86605644 56.631217 C25.86243146 60.36569126 25.86359838 64.10015249 25.86618423 67.83462715 C25.86684836 69.61710174 25.86604318 71.39957753 25.86370468 73.1820507 C25.86114673 75.67991106 25.86506293 78.17768327 25.87060547 80.67553711 C25.86756912 81.76603867 25.86756912 81.76603867 25.86447144 82.87857056 C25.88428262 87.73220561 26.38902216 92.11217728 27 97 C18.42 97.33 9.84 97.66 1 98 C0.25044562 95.0017825 -0.41070989 92.03063487 -1 89 C-1.40089844 89.38671875 -1.80179688 89.7734375 -2.21484375 90.171875 C-9.96076369 97.2679105 -18.40859244 100.41315384 -28.859375 100.2734375 C-38.45978647 99.43758078 -46.66130268 96.38271806 -53 89 C-54.97246957 86.46937358 -56.86246733 84.01477238 -58 81 C-57.62109375 78.76171875 -57.62109375 78.76171875 -57 77 C-56.69707031 77.59167969 -56.39414062 78.18335938 -56.08203125 78.79296875 C-51.55267024 87.33604043 -46.34856331 92.88381223 -37 96 C-27.65615197 96.89312038 -17.14019102 97.62286351 -8.90625 92.578125 C-6.32466479 90.44091102 -4.26265155 88.1048576 -2.3515625 85.35546875 C-1.90554688 84.90816406 -1.45953125 84.46085938 -1 84 C0.32 84 1.64 84 3 84 C3 87.63 3 91.26 3 95 C9.6 95 16.2 95 23 95 C23 64.31 23 33.62 23 2 C16.07 2 9.14 2 2 2 C2.01571045 3.74015381 2.0314209 5.48030762 2.04760742 7.27319336 C2.09617874 13.05262508 2.13054283 18.83204979 2.15543652 24.61162472 C2.17102599 28.11237531 2.19213941 31.61290302 2.22631836 35.11352539 C2.26545205 39.14731871 2.27976462 43.18088156 2.29296875 47.21484375 C2.30845261 48.45894516 2.32393646 49.70304657 2.33988953 50.98484802 C2.34145878 59.16061142 1.95285374 66.32888454 -3.3125 72.875 C-9.72865924 77.94824219 -14.96816607 78.85345542 -23 78 C-28.10874964 76.76817065 -31.66918468 74.0373519 -35 70 C-35 69.01 -35 68.02 -35 67 C-34.34 67 -33.68 67 -33 67 C-32.5875 67.763125 -32.175 68.52625 -31.75 69.3125 C-29.44764441 72.84826037 -28.02198434 73.65933855 -24 75 C-16.60702708 75.84197747 -10.9400474 75.67620753 -5 71 C-1.17392461 66.02610199 -0.88327137 60.94572454 -0.79467773 54.83276367 C-0.77473251 53.61187546 -0.75478729 52.39098724 -0.73423767 51.13310242 C-0.71752518 49.82460831 -0.70081268 48.5161142 -0.68359375 47.16796875 C-0.6630042 45.80747372 -0.64200722 44.44698481 -0.62062073 43.08650208 C-0.56560653 39.51751677 -0.51610683 35.94847573 -0.46777344 32.37939453 C-0.41740694 28.73269742 -0.36185059 25.08607959 -0.30664062 21.43945312 C-0.19882382 14.29303007 -0.09964056 7.14656046 0 0 Z M0 86 C1 88 1 88 1 88 Z " fill="#08326C" transform="translate(653,471)"/>
<path d="M0 0 C-2.10516509 3.59958622 -4.27677999 6.57260652 -7.125 9.625 C-10.37087874 13.16500368 -13.48290252 16.76303365 -16.5 20.5 C-20.15915192 25.03068373 -23.98665321 29.35362248 -27.95703125 33.61328125 C-30.22850119 36.26694881 -32.11410336 39.0630868 -34 42 C-22.58319991 59.55486288 -22.58319991 59.55486288 -11 77 C-9.22724193 79.64454937 -7.45699297 82.29076516 -5.6875 84.9375 C-5.26621826 85.56527344 -4.84493652 86.19304687 -4.41088867 86.83984375 C-4.0110376 87.43796875 -3.61118652 88.03609375 -3.19921875 88.65234375 C-2.84690186 89.17820068 -2.49458496 89.70405762 -2.1315918 90.24584961 C-0.69981268 92.46533892 0.64988357 94.73013035 2 97 C-2.35988072 97.09890664 -6.71916673 97.17148376 -11.07983398 97.21972656 C-12.56302261 97.23983759 -14.04613199 97.26713074 -15.52905273 97.30175781 C-17.66149435 97.35030352 -19.79288777 97.37297195 -21.92578125 97.390625 C-23.85031128 97.4220459 -23.85031128 97.4220459 -25.8137207 97.45410156 C-29 97 -29 97 -31.00463867 95.16308594 C-32 93 -32 93 -31 90 C-30.62383545 90.65194336 -30.2476709 91.30388672 -29.86010742 91.97558594 C-28.14997838 94.25040775 -28.14997838 94.25040775 -25.36450195 94.45410156 C-23.81702271 94.42268066 -23.81702271 94.42268066 -22.23828125 94.390625 C-20.56088867 94.37128906 -20.56088867 94.37128906 -18.84960938 94.3515625 C-17.68236328 94.31804687 -16.51511719 94.28453125 -15.3125 94.25 C-14.13365234 94.23195313 -12.95480469 94.21390625 -11.74023438 94.1953125 C-8.82601074 94.14811859 -5.91340969 94.08229077 -3 94 C-3.51062988 93.23405518 -4.02125977 92.46811035 -4.54736328 91.67895508 C-8.87133789 85.19299316 -8.87133789 85.19299316 -13.1953125 78.70703125 C-13.56954346 78.14612793 -13.94377441 77.58522461 -14.3293457 77.00732422 C-15.12119528 75.81864159 -15.91135172 74.6288296 -16.69995117 73.43798828 C-19.50314739 69.21274235 -22.35509338 65.02417558 -25.23046875 60.84765625 C-26.7161663 58.66928479 -28.20184335 56.49089935 -29.6875 54.3125 C-30.4196875 53.26030273 -31.151875 52.20810547 -31.90625 51.12402344 C-32.58042969 50.13047852 -33.25460937 49.13693359 -33.94921875 48.11328125 C-34.56112061 47.22423096 -35.17302246 46.33518066 -35.8034668 45.41918945 C-37 43 -37 43 -36.82739258 40.84472656 C-35.49638568 37.87715851 -33.2361529 35.74252671 -31 33.4375 C-26.50752903 28.68205512 -22.30925797 23.77975316 -18.20703125 18.6796875 C-15.20807921 15.03848202 -12.04173216 11.56385717 -8.84765625 8.09375 C-6.86054661 5.93666737 -6.86054661 5.93666737 -5 3 C-19.48827061 0.95095417 -19.48827061 0.95095417 -33.23193359 4.24658203 C-36.90357889 7.54955183 -39.3368197 11.6379839 -41.75537109 15.90429688 C-43.77595757 19.30655548 -46.26220718 22.30723094 -48.75 25.375 C-49.64770264 26.520389 -50.54485509 27.66620946 -51.44140625 28.8125 C-54.78867526 33.02786029 -58.34923966 37.04588135 -62 41 C-62.495 39.515 -62.495 39.515 -63 38 C-62.46632813 37.42894531 -61.93265625 36.85789062 -61.3828125 36.26953125 C-57.08615266 31.59375437 -53.04282898 26.86129387 -49.1875 21.8125 C-48.76114258 21.28027832 -48.33478516 20.74805664 -47.89550781 20.19970703 C-45.51663193 17.19206508 -43.56608263 14.25663989 -41.82421875 10.8359375 C-32.9613386 -4.94561231 -15.83082497 -1.37176096 0 0 Z " fill="#093067" transform="translate(876,471)"/>
<path d="M0 0 C0.83265381 0.04713135 1.66530762 0.0942627 2.52319336 0.14282227 C3.871875 0.21533203 3.871875 0.21533203 5.24780273 0.28930664 C6.19333008 0.34538086 7.13885742 0.40145508 8.11303711 0.45922852 C9.53712891 0.53753906 9.53712891 0.53753906 10.98999023 0.61743164 C13.34380663 0.74754209 15.6972441 0.88251963 18.05053711 1.02172852 C18.05053711 1.68172852 18.05053711 2.34172852 18.05053711 3.02172852 C11.78053711 3.02172852 5.51053711 3.02172852 -0.94946289 3.02172852 C-0.94946289 45.26172852 -0.94946289 87.50172852 -0.94946289 131.02172852 C6.31053711 131.02172852 13.57053711 131.02172852 21.05053711 131.02172852 C21.05053711 122.11172852 21.05053711 113.20172852 21.05053711 104.02172852 C21.38053711 104.02172852 21.71053711 104.02172852 22.05053711 104.02172852 C23.15013875 113.90122636 22.82360039 123.14369765 22.05053711 133.02172852 C13.80053711 133.02172852 5.55053711 133.02172852 -2.94946289 133.02172852 C-2.97200956 115.82833577 -2.99044185 98.63495557 -3.00127506 81.44155216 C-3.00643811 73.45891352 -3.01348098 65.47628469 -3.02490234 57.49365234 C-3.03484891 50.53849053 -3.04131625 43.58333582 -3.04355139 36.62816709 C-3.04485854 32.94320925 -3.04794468 29.25827174 -3.05519295 25.57332039 C-3.06320629 21.46635143 -3.06345405 17.35941815 -3.06298828 13.25244141 C-3.06658356 12.0217392 -3.07017883 10.79103699 -3.07388306 9.52304077 C-3.07250839 8.41099777 -3.07113373 7.29895477 -3.06971741 6.1532135 C-3.0706392 5.1807219 -3.07156099 4.2082303 -3.07251072 3.20626926 C-2.91525466 0.41440953 -2.81111896 0.03133245 0 0 Z " fill="#072A5F" transform="translate(789.949462890625,434.978271484375)"/>
<path d="M0 0 C0.33 0 0.66 0 1 0 C1.77413772 7.96347289 2.14164152 15.82822808 2.11352539 23.82714844 C2.11367142 24.9408078 2.11381744 26.05446716 2.1139679 27.20187378 C2.11327809 30.8377282 2.10552989 34.47352967 2.09765625 38.109375 C2.09578875 40.64813204 2.09436642 43.18688944 2.09336853 45.72564697 C2.08995658 51.69638781 2.08209661 57.667112 2.07201904 63.63784432 C2.06078546 70.44331095 2.05532932 77.24877854 2.05032361 84.05425215 C2.03991169 98.03618026 2.02159549 112.01808492 2 126 C8.93 126 15.86 126 23 126 C23 122.7 23 119.4 23 116 C23.33 116 23.66 116 24 116 C24 119.96 24 123.92 24 128 C15.75 128 7.5 128 -1 128 C-0.99476318 124.92171875 -0.98952637 121.8434375 -0.98413086 118.671875 C-0.96754514 108.48988694 -0.9565088 98.30789827 -0.94818783 88.12590027 C-0.94297405 81.95388066 -0.93590371 75.78187491 -0.92456055 69.60986328 C-0.91367821 63.65116235 -0.90771182 57.69247475 -0.90512276 51.73376465 C-0.90327815 49.4628478 -0.89967611 47.19193167 -0.89426994 44.92102051 C-0.88698858 41.73509152 -0.88601205 38.54921725 -0.88647461 35.36328125 C-0.88287933 34.42891739 -0.87928406 33.49455353 -0.87557983 32.53187561 C-0.88190651 28.49260846 -0.99220926 24.56948513 -1.53053284 20.56323242 C-2.03646301 16.72324759 -1.65635664 13.80686849 -1 10 C-0.63324394 6.66985493 -0.31541709 3.335368 0 0 Z " fill="#0B366E" transform="translate(487,440)"/>
<path d="M0 0 C8.58 0 17.16 0 26 0 C26.1176598 21.36179087 25.88489262 42.65431888 25 64 C23 62 23 62 22.75949097 59.48165894 C22.7661528 57.88948044 22.7661528 57.88948044 22.77294922 56.26513672 C22.77310028 55.06404266 22.77325134 53.86294861 22.77340698 52.62545776 C22.78372955 51.32335358 22.79405212 50.02124939 22.8046875 48.6796875 C22.80841724 47.33733327 22.81126439 45.99497633 22.81326294 44.65261841 C22.82090256 41.117986 22.8405537 37.58351772 22.8626709 34.0489502 C22.88312235 30.4428123 22.89226315 26.83664791 22.90234375 23.23046875 C22.92379942 16.15357224 22.95898414 9.07681409 23 2 C16.07 2 9.14 2 2 2 C2.33 26.42 2.66 50.84 3 76 C1 75 1 75 0.38209534 73.37322998 C-0.12341612 70.23345088 -0.11916578 67.20950119 -0.11352539 64.02832031 C-0.11367142 63.3352327 -0.11381744 62.64214508 -0.1139679 61.92805481 C-0.11327307 59.64471267 -0.10550085 57.36145283 -0.09765625 55.078125 C-0.09579054 53.49200485 -0.09436736 51.90588412 -0.09336853 50.31976318 C-0.08955538 46.15063885 -0.07973537 41.9815495 -0.06866455 37.81243896 C-0.05842457 33.55595371 -0.05386537 29.29946278 -0.04882812 25.04296875 C-0.03811201 16.69529468 -0.02052495 8.34765573 0 0 Z " fill="#04275C" transform="translate(592,471)"/>
<path d="M0 0 C1.81631493 2.7244724 2.98078371 5.18791884 4.25 8.1875 C8.83459124 18.34867005 15.58334897 26.45922025 25.84765625 31.1875 C37.85774285 35.7212532 52.12632091 35.32622024 64.07421875 30.84765625 C73.85222775 26.41872118 80.24296722 20.15326028 84.2109375 10.140625 C84.47132813 9.43421875 84.73171875 8.7278125 85 8 C85.66422931 6.33236046 86.33032238 4.66545913 87 3 C83.58165767 2.99373274 80.16752695 3.05333495 76.75 3.125 C75.78191406 3.12242187 74.81382812 3.11984375 73.81640625 3.1171875 C71.08606246 3.19250733 68.64878874 3.32705837 66 4 C63.42992122 6.79086037 63.42992122 6.79086037 62 10 C61.01 10.66 60.02 11.32 59 12 C60.46552946 8.1670768 62.14624378 4.70751245 64 1 C76.375 0.505 76.375 0.505 89 0 C90 2 90 2 89.25 4.94140625 C85.05187129 17.10286034 79.35270343 25.94853986 67.80859375 32.18359375 C55.56646161 37.99594518 41.46505661 39.11642341 28.484375 34.96875 C15.4420499 29.88306348 6.51948657 21.17267486 0.84765625 8.40625 C-0.17476294 5.50389875 -0.14206684 3.05443703 0 0 Z " fill="#0A2E63" transform="translate(690,534)"/>
<path d="M0 0 C3.37234971 0.28102914 4.78639739 0.80371652 7.3125 3.125 C9.46659279 6.79493587 9.58959901 8.79910705 9 13 C7.14905493 17.01038098 5.32732444 19.16008497 1.3125 20.875 C-4.76012767 22.7565006 -10.38267155 23.01088628 -16.25 20.375 C-20.14293636 18.18716977 -22.49238057 15.68306603 -25 12 C-25 11.01 -25 10.02 -25 9 C-31.93 8.67 -38.86 8.34 -46 8 C-43.40745714 18.26214882 -40.55205608 25.34609629 -31.76171875 31.58984375 C-24.07861056 36.16786159 -16.28123001 37.28175974 -7.5 37.625 C-6.26636719 37.68300781 -6.26636719 37.68300781 -5.0078125 37.7421875 C-3.0055299 37.83531692 -1.00279738 37.91868985 1 38 C-1.77740541 40.77740541 -3.49347985 40.29964728 -7.375 40.3125 C-19.40745083 40.10334697 -29.97234344 37.3936837 -39.03515625 29.1484375 C-45.67790332 22.06848203 -47.80069299 15.59445607 -49 6 C-40.75 6 -32.5 6 -24 6 C-22.68 8.97 -21.36 11.94 -20 15 C-16.34667731 18.54261594 -11.70255235 18.73884781 -6.796875 19.0703125 C-2.55155313 18.96358653 0.21620076 17.9262978 4 16 C6.32749345 12.50875983 6.50299316 11.10777749 6 7 C4.1329009 4.69724444 2.64352259 3.32176129 0 2 C0 1.34 0 0.68 0 0 Z " fill="#0D3064" transform="translate(921,531)"/>
<path d="M0 0 C7.28901042 -0.99395597 12.96685242 2.09525727 19 6 C27.54197247 13.53221854 30.57720431 21.95058731 32 33 C32.25377583 38.02590731 32.23477092 43.04368999 32.1953125 48.07421875 C32.19157258 49.4933909 32.18873025 50.91256566 32.18673706 52.33174133 C32.17917749 56.02899571 32.15959711 59.72608767 32.1373291 63.42327881 C32.11670317 67.2112 32.1076999 70.99914797 32.09765625 74.78710938 C32.07634218 82.19148813 32.04122485 89.59570042 32 97 C23.75 97 15.5 97 7 97 C7.33 93.37 7.66 89.74 8 86 C8.33 86 8.66 86 9 86 C9 89.3 9 92.6 9 96 C15.93 96 22.86 96 30 96 C29.91400372 88.12329969 29.82000473 80.24678845 29.71247292 72.37035751 C29.66283306 68.71178621 29.6165045 65.05323937 29.578125 61.39453125 C29.54085855 57.85415253 29.49439595 54.31399635 29.44193649 50.77381134 C29.4147785 48.78676227 29.39679439 46.79959448 29.37905884 44.81243896 C29.18535537 32.72035525 28.79209023 20.91833 20.75 11.3125 C14.32589466 5.91041142 8.13537849 3.05051548 0 1 C0 0.67 0 0.34 0 0 Z " fill="#09316A" transform="translate(256,471)"/>
<path d="M0 0 C0.66 0 1.32 0 2 0 C2.24129639 0.75289307 2.48259277 1.50578613 2.73120117 2.28149414 C7.04183174 15.47548715 11.85291322 28.48957728 16.61456299 41.52587891 C17.78947508 44.74391536 18.96203054 47.96281031 20.13476562 51.18164062 C22.42068818 57.45533996 24.71042452 63.7276281 27 70 C40.365 70.495 40.365 70.495 54 71 C54.66 68.36 55.32 65.72 56 63 C56.63148886 61.00933002 57.29426745 59.02807541 58 57.0625 C58.33 56.12535156 58.66 55.18820312 59 54.22265625 C60 52 60 52 62 51 C58.25 69.75 58.25 69.75 55 73 C52.78144736 73.08783542 50.56011504 73.10694609 48.33984375 73.09765625 C47.34314415 73.09553383 47.34314415 73.09553383 46.3263092 73.09336853 C44.19666101 73.08775518 42.06711661 73.07520054 39.9375 73.0625 C38.49674631 73.05748671 37.05599097 73.05292351 35.61523438 73.04882812 C32.07678898 73.03778145 28.53840461 73.02050792 25 73 C24.6690332 72.08226807 24.33806641 71.16453613 23.99707031 70.21899414 C22.99342039 67.43623873 21.98935128 64.65363487 20.98510742 61.87109375 C19.82027022 58.64356632 18.65653876 55.41564282 17.4934082 52.1875 C14.51090298 43.91565695 11.51033323 35.65122187 8.46484375 27.40234375 C7.63792476 25.15553609 6.8114136 22.90857878 5.98498535 20.66159058 C5.4548423 19.22463349 4.92238351 17.78852857 4.38757324 16.353302 C3.64200701 14.35216976 2.90424281 12.34831602 2.16796875 10.34375 C1.74797607 9.21130859 1.3279834 8.07886719 0.89526367 6.91210938 C0 4 0 4 0 0 Z " fill="#08295C" transform="translate(297,495)"/>
<path d="M0 0 C0.99 0.33 1.98 0.66 3 1 C8.13915487 11.31488735 8.2136646 23.73079083 9 35 C6.18784488 36.40607756 3.8595578 36.11950486 0.71435547 36.11352539 C0.07032776 36.11367142 -0.57369995 36.11381744 -1.23724365 36.1139679 C-3.36913402 36.1132704 -5.50093737 36.10548566 -7.6328125 36.09765625 C-9.10968986 36.09579149 -10.58656784 36.09436786 -12.06344604 36.09336853 C-15.95312199 36.08954792 -19.84276067 36.07972152 -23.73242188 36.06866455 C-27.70051571 36.05844064 -31.66861555 36.05386881 -35.63671875 36.04882812 C-43.42449616 36.03809885 -51.21224286 36.02102789 -59 36 C-58.77183594 36.60328125 -58.54367187 37.2065625 -58.30859375 37.828125 C-57.87740234 39.02695312 -57.87740234 39.02695312 -57.4375 40.25 C-57.14746094 41.03890625 -56.85742188 41.8278125 -56.55859375 42.640625 C-55.95477163 45.19103452 -56.1526068 46.55322229 -57 49 C-57.706847 47.63484485 -58.38963646 46.25722137 -59.0625 44.875 C-59.63677734 43.72644531 -59.63677734 43.72644531 -60.22265625 42.5546875 C-61 40 -61 40 -60 34 C-38.22 34 -16.44 34 6 34 C5.07307617 17.89571363 5.07307617 17.89571363 0.8046875 3.86328125 C0 2 0 2 0 0 Z " fill="#03255A" transform="translate(468,492)"/>
<path d="M0 0 C0.99 0.33 1.98 0.66 3 1 C2.27450412 10.18961445 -3.12200649 19.02969708 -10 25 C-17.01378146 29.50885951 -22.59286421 32.1586252 -31 32 C-28.16757578 30.11171718 -26.01514041 29.27990411 -22.8125 28.25 C-14.03549082 25.10046636 -7.79191016 20.04305864 -3 12 C-2.01 9.69 -1.02 7.38 0 5 C-6.93 4.67 -13.86 4.34 -21 4 C-21.66 5.65 -22.32 7.3 -23 9 C-28.72514896 13.77095746 -34.71207208 15.33328995 -42 14.875 C-48.19093454 14.07370801 -53.86986104 11.82481065 -58 7 C-58 6.34 -58 5.68 -58 5 C-57.34 5 -56.68 5 -56 5 C-56 5.66 -56 6.32 -56 7 C-47.06155434 11.6347496 -39.75508458 12.7989971 -30 10 C-27.07201057 8.84587664 -27.07201057 8.84587664 -25 7 C-24.69320312 6.14664063 -24.38640625 5.29328125 -24.0703125 4.4140625 C-22 2 -22 2 -19.69799805 1.59399414 C-16.72236319 1.50666601 -13.78688919 1.56582895 -10.8125 1.6875 C-9.77673828 1.71005859 -8.74097656 1.73261719 -7.67382812 1.75585938 C-5.11443596 1.81483154 -2.55794049 1.89707433 0 2 C0 1.34 0 0.68 0 0 Z " fill="#092F67" transform="translate(471,537)"/>
<path d="M0 0 C3.89636376 3.42385696 7.06680519 6.78577401 8 12 C5.47269373 9.47269373 2.96426089 6.96059533 0.5625 4.3125 C-3.96855912 0.22349543 -8.76238587 -0.47839131 -14.6953125 -0.30859375 C-19.42314061 0.32445442 -23.23742167 2.15242424 -26.5390625 5.61328125 C-32.69812398 13.73531846 -33.61151054 23.91424295 -32.75390625 33.8515625 C-31.5436267 40.77050576 -29.35152328 47.23549467 -23.9375 51.9375 C-19.35827554 55.15270015 -15.23176371 55.27378813 -9.8125 55.5625 C-8.68811523 55.62727539 -8.68811523 55.62727539 -7.54101562 55.69335938 C-5.69421625 55.79922685 -3.84713166 55.9000976 -2 56 C-6.90188292 59.26792195 -12.2716756 58.54232657 -18 58 C-23.68719918 56.40866923 -27.96601636 53.1035939 -31 48 C-36.38883377 36.65796136 -37.70455814 25.69829981 -33.96875 13.57421875 C-31.14315483 6.0658832 -27.36092912 1.40973456 -20 -2 C-13.16287463 -4.04852802 -6.28088828 -3.35054428 0 0 Z " fill="#092F66" transform="translate(747,492)"/>
<path d="M0 0 C-2.48780605 7.56303152 -5.12058839 15.07043142 -7.78125 22.57421875 C-8.00643814 23.20939737 -8.23162628 23.844576 -8.46363831 24.49900246 C-9.65257761 27.85201352 -10.84269034 31.20460553 -12.03369141 34.55688477 C-13.25735954 38.00196395 -14.47658063 41.44860001 -15.69486237 44.89558697 C-16.63944566 47.56545944 -17.58744916 50.23410834 -18.53636169 52.90244484 C-19.20515892 54.78594292 -19.87025744 56.67075304 -20.53527832 58.55558777 C-20.94580444 59.70730972 -21.35633057 60.85903168 -21.77929688 62.0456543 C-22.13664917 63.05331345 -22.49400146 64.0609726 -22.86218262 65.09916687 C-24.06711113 68.17109791 -25.4829331 71.07125208 -27 74 C-28.47318364 70.14856972 -27.47545211 67.79614321 -26.04296875 64.03125 C-25.59445557 62.83338867 -25.14594238 61.63552734 -24.68383789 60.40136719 C-24.18512506 59.10088597 -23.68634412 57.80043086 -23.1875 56.5 C-22.42558581 54.47816464 -21.66754686 52.45490198 -20.90959167 50.43157959 C-20.38857099 49.04165888 -19.86626724 47.65221851 -19.34272766 46.26324463 C-16.22776711 37.98865182 -13.29206803 29.65201034 -10.3503418 21.31445312 C-9.96789307 20.23615234 -9.58544434 19.15785156 -9.19140625 18.046875 C-8.86342041 17.11713867 -8.53543457 16.18740234 -8.19750977 15.22949219 C-6.55025631 10.78711325 -4.75963063 6.39907657 -3 2 C-10.59 2 -18.18 2 -26 2 C-26.33 3.98 -26.66 5.96 -27 8 C-27.99 8.495 -27.99 8.495 -29 9 C-28.125 2.25 -28.125 2.25 -27 0 C-22.87536584 -0.19622046 -18.75028427 -0.38050216 -14.625 -0.5625 C-13.449375 -0.61857422 -12.27375 -0.67464844 -11.0625 -0.73242188 C-9.94101562 -0.78076172 -8.81953125 -0.82910156 -7.6640625 -0.87890625 C-6.10872803 -0.94960327 -6.10872803 -0.94960327 -4.52197266 -1.02172852 C-2 -1 -2 -1 0 0 Z " fill="#082B62" transform="translate(387,471)"/>
<path d="M0 0 C6.59265217 0.28053839 11.02759665 2.69782953 16 7 C21.26888557 12.88606523 23.37563162 19.37686768 25 27 C22.44276771 28.27861615 20.63262898 28.11336609 17.7734375 28.09765625 C16.7421875 28.09443359 15.7109375 28.09121094 14.6484375 28.08789062 C13.56820312 28.07951172 12.48796875 28.07113281 11.375 28.0625 C9.74304688 28.05573242 9.74304688 28.05573242 8.078125 28.04882812 C5.38536211 28.03701776 2.69270812 28.02054778 0 28 C-0.4434375 26.88496094 -0.886875 25.76992188 -1.34375 24.62109375 C-2.69470696 20.92714858 -2.69470696 20.92714858 -5.5 19.0625 C-11.41791304 17.26599068 -17.42954134 16.81758902 -23.125 19.4375 C-26.05731872 21.88109893 -26.18510619 22.73464849 -26.5625 26.5625 C-26.64628906 27.38878906 -26.73007812 28.21507812 -26.81640625 29.06640625 C-26.87699219 29.70449219 -26.93757812 30.34257812 -27 31 C-27.66 30.67 -28.32 30.34 -29 30 C-29.66964286 22.23214286 -29.66964286 22.23214286 -26.75 18.5625 C-22.37886465 14.48939661 -18.30344541 14.76660979 -12.53515625 14.8515625 C-7.54889139 15.14351637 -4.157479 15.81206103 -0.625 19.4375 C1 22 1 22 2 25 C8.6 25 15.2 25 22 25 C19.22651955 16.35954169 17.03603167 9.89797219 8.9453125 5.2421875 C5.99279932 3.74856319 3.02627982 2.33685176 0 1 C0 0.67 0 0.34 0 0 Z " fill="#092A5D" transform="translate(927,472)"/>
<path d="M0 0 C1.87461914 -0.01836914 1.87461914 -0.01836914 3.78710938 -0.03710938 C4.98787109 -0.03904297 6.18863281 -0.04097656 7.42578125 -0.04296875 C8.52962158 -0.04707764 9.63346191 -0.05118652 10.77075195 -0.05541992 C13.67536016 0.18648894 15.32765465 0.4962947 17.6875 2.1875 C18.4041207 4.50597874 19.06992027 6.84069703 19.6875 9.1875 C21.20757842 10.96027259 21.20757842 10.96027259 22.6875 12.1875 C22.6875 12.8475 22.6875 13.5075 22.6875 14.1875 C24.3890625 14.620625 24.3890625 14.620625 26.125 15.0625 C27.300625 15.43375 28.47625 15.805 29.6875 16.1875 C30.1825 17.1775 30.1825 17.1775 30.6875 18.1875 C25.70272729 17.94434036 23.03436546 16.27587588 19.30078125 13.24609375 C17.6875 11.1875 17.6875 11.1875 14.6875 3.1875 C6.1075 3.1875 -2.4725 3.1875 -11.3125 3.1875 C-8.8188353 14.8885691 -8.8188353 14.8885691 -2.484375 24.76953125 C-1.3125 26.1875 -1.3125 26.1875 -1.3125 28.1875 C-0.74273437 28.45691406 -0.17296875 28.72632813 0.4140625 29.00390625 C2.6875 30.1875 2.6875 30.1875 4.7734375 31.58984375 C11.70334807 36.23737763 18.51445643 37.84495394 26.6875 39.1875 C26.6875 39.8475 26.6875 40.5075 26.6875 41.1875 C14.78036882 40.89772468 5.35449857 36.80340726 -3.1875 28.5078125 C-10.25120437 20.7948706 -13.4306664 11.54904485 -14.3125 1.1875 C-11.62506979 -1.49993021 -3.62024642 0.0018499 0 0 Z " fill="#0A2A5C" transform="translate(98.3125,529.8125)"/>
<path d="M0 0 C6.79621132 3.11276854 10.48253784 8.33525228 13.06640625 15.1875 C13.6843835 17.92066766 13.57613972 20.51831379 13.546875 23.3125 C8.70882534 23.33737921 3.87081365 23.35544428 -0.96728516 23.36743164 C-2.61019541 23.37243363 -4.25310127 23.37923733 -5.89599609 23.38793945 C-8.26921681 23.4001874 -10.64237823 23.40576979 -13.015625 23.41015625 C-14.10206299 23.41789818 -14.10206299 23.41789818 -15.21044922 23.42579651 C-20.0405589 23.42631759 -24.67003363 22.99277235 -29.453125 22.3125 C-29.453125 21.9825 -29.453125 21.6525 -29.453125 21.3125 C-24.39943395 21.16937046 -19.34572295 21.02697432 -14.29199219 20.88525391 C-12.57323652 20.8369524 -10.85448645 20.78845148 -9.13574219 20.73974609 C-6.66342595 20.66972095 -4.1910904 20.60041603 -1.71875 20.53125 C-0.56853363 20.49843933 -0.56853363 20.49843933 0.60491943 20.46496582 C3.92105631 20.37281228 7.22909577 20.3125 10.546875 20.3125 C9.59016949 13.88686595 8.35690003 9.8018567 3.546875 5.3125 C-2.22052693 1.85205884 -7.816331 1.56173145 -14.453125 2.3125 C-18.20398625 3.71907297 -20.84379205 5.26827823 -23.453125 8.3125 C-24.443125 7.9825 -25.433125 7.6525 -26.453125 7.3125 C-25.37443107 6.34894756 -24.28993757 5.39188583 -23.203125 4.4375 C-22.29820312 3.63699219 -22.29820312 3.63699219 -21.375 2.8203125 C-15.26044809 -1.9768766 -7.36750173 -2.06477755 0 0 Z " fill="#0A346E" transform="translate(438.453125,488.6875)"/>
<path d="M0 0 C8.7453252 0.16500614 14.95251313 4.34442338 21.33984375 10.11328125 C29.68637376 18.86392631 31.59902696 27.15867422 31.47314453 38.95385742 C31.06294406 50.16119951 27.2502736 58.6589234 19.38671875 66.63671875 C17.8125 68.0625 17.8125 68.0625 15 70 C14.01 69.67 13.02 69.34 12 69 C12.63808594 68.44570313 13.27617187 67.89140625 13.93359375 67.3203125 C14.75988281 66.59585938 15.58617187 65.87140625 16.4375 65.125 C17.26121094 64.40570312 18.08492187 63.68640625 18.93359375 62.9453125 C21.05982155 61.16761255 21.05982155 61.16761255 22 59 C22.66 59 23.32 59 24 59 C24.48108275 57.58398286 24.95978141 56.16715563 25.4375 54.75 C25.70433594 53.96109375 25.97117188 53.1721875 26.24609375 52.359375 C29.30121147 42.79828122 29.77783639 30.07600029 25.93359375 20.6953125 C24.56953229 18.21831386 22.86135025 16.11808822 21 14 C21 13.34 21 12.68 21 12 C20.43925781 11.73058594 19.87851563 11.46117187 19.30078125 11.18359375 C16.84767288 9.92163817 14.53303115 8.51414369 12.1875 7.0625 C8.21516152 4.65555713 4.3209366 2.69080128 0 1 C0 0.67 0 0.34 0 0 Z " fill="#092E64" transform="translate(162,493)"/>
<path d="M0 0 C4.95 0 9.9 0 15 0 C15.08152344 2.54232342 15.14073716 5.08199202 15.1875 7.625 C15.21263672 8.33785156 15.23777344 9.05070313 15.26367188 9.78515625 C15.33015091 14.61596641 14.62284911 17.79211977 12 22 C6.40605864 27.4385541 1.12539503 29.18261618 -6.5 29.375 C-11.79719947 29.24104783 -15.46895626 28.75802663 -20 26 C-23.20612419 22.39796216 -23.90778904 19.33859794 -24.2578125 14.61328125 C-23.80441101 10.01743885 -21.47115573 6.93477405 -18 4 C-14.625 3 -14.625 3 -12 3 C-13.79783016 4.8924528 -15.40730469 6.26183873 -17.625 7.6875 C-20.48356295 10.47083761 -20.88633887 12.08316567 -21.1328125 15.96875 C-20.91724877 19.265607 -19.90369097 21.33483264 -18 24 C-11.91424158 27.07446619 -4.88152446 27.01057442 1.640625 25.3125 C6.86251551 23.23757662 9.27622839 21.0685837 12 16 C12.43260737 13.25460707 12.69156353 10.86620191 12.75 8.125 C12.77964844 7.43664062 12.80929687 6.74828125 12.83984375 6.0390625 C12.90980536 4.35998374 12.95725211 2.67999188 13 1 C8.71 1 4.42 1 0 1 C0 0.67 0 0.34 0 0 Z " fill="#092E65" transform="translate(249,524)"/>
<path d="M0 0 C2 1 2 1 2.61010742 2.80029297 C4.62063425 14.1433404 3.97397685 25.91064976 -2.09765625 35.78515625 C-5.18255501 40.04127081 -8.98811015 42.64625737 -14 44 C-20.24051131 44.6625895 -27.30567764 45.40586153 -33.0625 42.4375 C-37.35511568 38.8755423 -41.24941835 35.51980981 -42.875 30.0625 C-42.91625 29.381875 -42.9575 28.70125 -43 28 C-42.34 28 -41.68 28 -41 28 C-39.47551369 30.9826906 -38.06059933 33.818202 -37 37 C-35.17873247 38.15067042 -35.17873247 38.15067042 -33 39 C-32.33742188 39.29261719 -31.67484375 39.58523438 -30.9921875 39.88671875 C-24.45280559 42.36010121 -18.63511598 42.66504166 -11.98828125 40.27734375 C-6.20775528 37.38081121 -3.09453341 32.89350701 -0.87109375 27.015625 C0.53339112 21.79133006 0.2115984 16.42827005 0.125 11.0625 C0.11597656 9.99708984 0.10695313 8.93167969 0.09765625 7.83398438 C0.07423414 5.22241966 0.04143452 2.61133063 0 0 Z " fill="#0A346C" transform="translate(555,505)"/>
<path d="M0 0 C0.33 0 0.66 0 1 0 C1 14.85 1 29.7 1 45 C7.93 45 14.86 45 22 45 C22 41.7 22 38.4 22 35 C22.33 35 22.66 35 23 35 C23 38.96 23 42.92 23 47 C14.75 47 6.5 47 -2 47 C-2 32.15 -2 17.3 -2 2 C-1.34 2 -0.68 2 0 2 C0 1.34 0 0.68 0 0 Z " fill="#04285D" transform="translate(488,521)"/>
<path d="M0 0 C0.33 0 0.66 0 1 0 C1.06980979 7.66752104 1.12296748 15.33500872 1.15543652 23.00277615 C1.17102777 26.56405886 1.19214455 30.12512258 1.22631836 33.6862793 C1.26544385 37.78957099 1.27976317 41.89263614 1.29296875 45.99609375 C1.30845261 47.26206894 1.32393646 48.52804413 1.33988953 49.8323822 C1.34144315 58.06400201 0.99057982 65.28198185 -4.3125 71.875 C-10.72865924 76.94824219 -15.96816607 77.85345542 -24 77 C-29.10874964 75.76817065 -32.66918468 73.0373519 -36 69 C-36 68.01 -36 67.02 -36 66 C-35.34 66 -34.68 66 -34 66 C-33.38125 67.1446875 -33.38125 67.1446875 -32.75 68.3125 C-30.44764441 71.84826037 -29.02198434 72.65933855 -25 74 C-17.60702708 74.84197747 -11.9400474 74.67620753 -6 70 C-2.10934711 64.90190311 -0.76266355 59.23353558 -0.68115234 52.90283203 C-0.66128265 51.72206085 -0.64141296 50.54128967 -0.62094116 49.32473755 C-0.60938995 48.06515228 -0.59783875 46.80556702 -0.5859375 45.5078125 C-0.56657135 44.20673553 -0.5472052 42.90565857 -0.5272522 41.56515503 C-0.47612061 38.12279236 -0.43639412 34.68039078 -0.39910889 31.237854 C-0.35894952 27.71836879 -0.3079119 24.19904277 -0.2578125 20.6796875 C-0.16127833 13.78657491 -0.07680224 6.89335992 0 0 Z " fill="#062353" transform="translate(654,472)"/>
<path d="M0 0 C2.31 0 4.62 0 7 0 C7.33 14.52 7.66 29.04 8 44 C10.64 41.69 13.28 39.38 16 37 C19.8643556 34.65107797 22.47233262 33.60049994 27 34 C26.67 34.66 26.34 35.32 26 36 C24.865625 36.350625 23.73125 36.70125 22.5625 37.0625 C16.57775408 39.12620549 12.44521666 43.65498289 8 48 C7.01 47.67 6.02 47.34 5 47 C5 31.82 5 16.64 5 1 C3.35 1 1.7 1 0 1 C0 0.67 0 0.34 0 0 Z " fill="#012559" transform="translate(505,437)"/>
<path d="M0 0 C3.37234971 0.28102914 4.78639739 0.80371652 7.3125 3.125 C9.46659279 6.79493587 9.58959901 8.79910705 9 13 C7.14905493 17.01038098 5.32732444 19.16008497 1.3125 20.875 C-4.76012767 22.7565006 -10.38267155 23.01088628 -16.25 20.375 C-20.14293636 18.18716977 -22.49238057 15.68306603 -25 12 C-25 11.01 -25 10.02 -25 9 C-36.385 8.505 -36.385 8.505 -48 8 C-48 7.67 -48 7.34 -48 7 C-40.08 7 -32.16 7 -24 7 C-22.68 9.64 -21.36 12.28 -20 15 C-15.72459699 19.01628767 -9.63755041 19.14172613 -4 19 C0.48336075 18.05994049 3.37932176 16.93101737 6 13 C6.50010524 10.04230823 6.50010524 10.04230823 6 7 C4.1329009 4.69724444 2.64352259 3.32176129 0 2 C0 1.34 0 0.68 0 0 Z " fill="#082C62" transform="translate(921,531)"/>
<path d="M0 0 C5.01999241 4.50463198 8.4523374 9.87889325 12.125 15.5 C12.74503906 16.43714844 13.36507812 17.37429688 14.00390625 18.33984375 C16.75648722 22.51311167 19.44882272 26.69985429 22 31 C17.64011928 31.09890664 13.28083327 31.17148376 8.92016602 31.21972656 C7.43697739 31.23983759 5.95386801 31.26713074 4.47094727 31.30175781 C2.33850565 31.35030352 0.20711223 31.37297195 -1.92578125 31.390625 C-3.20880127 31.41157227 -4.49182129 31.43251953 -5.8137207 31.45410156 C-9 31 -9 31 -11.00463867 29.16308594 C-12 27 -12 27 -11 24 C-10.62383545 24.65194336 -10.2476709 25.30388672 -9.86010742 25.97558594 C-8.14997838 28.25040775 -8.14997838 28.25040775 -5.36450195 28.45410156 C-3.81702271 28.42268066 -3.81702271 28.42268066 -2.23828125 28.390625 C-1.12001953 28.37773438 -0.00175781 28.36484375 1.15039062 28.3515625 C2.31763672 28.31804688 3.48488281 28.28453125 4.6875 28.25 C6.45577148 28.22292969 6.45577148 28.22292969 8.25976562 28.1953125 C11.17398926 28.14811859 14.08659031 28.08229077 17 28 C16.52691406 27.29617188 16.05382812 26.59234375 15.56640625 25.8671875 C11.67661777 20.0590433 7.81401503 14.23319258 4 8.375 C3.60240479 7.77155762 3.20480957 7.16811523 2.79516602 6.54638672 C0 2.23011317 0 2.23011317 0 0 Z " fill="#052B61" transform="translate(856,537)"/>
<path d="M0 0 C9.83330986 0.47580532 17.96290622 3.96290622 25 11 C30.07118151 17.17970611 35 25.78772528 35 34 C27.74 34 20.48 34 13 34 C12.67 33.34 12.34 32.68 12 32 C18.6 32 25.2 32 32 32 C29.69808491 22.52152611 25.997844 14.52579413 17.875 8.6875 C12.29229134 5.29143286 6.14695125 3.14715763 0 1 C0 0.67 0 0.34 0 0 Z " fill="#082D62" transform="translate(744,471)"/>
<path d="M0 0 C5.74958688 2.94770487 9.05909132 7.1826459 11.0625 13.375 C10.010625 12.2921875 10.010625 12.2921875 8.9375 11.1875 C2.76637629 5.06852664 -1.98952593 1.35352203 -10.875 1.125 C-15.23369132 1.20412904 -18.83123799 1.94673495 -22.9375 3.375 C-22.9375 4.035 -22.9375 4.695 -22.9375 5.375 C-23.54207031 5.95507812 -24.14664063 6.53515625 -24.76953125 7.1328125 C-32.11857751 14.73344773 -32.77248422 26.36904299 -32.9375 36.375 C-33.2675 36.375 -33.5975 36.375 -33.9375 36.375 C-34.52512599 18.63740078 -34.52512599 18.63740078 -30.9375 11.375 C-30.60878906 10.66859375 -30.28007813 9.9621875 -29.94140625 9.234375 C-23.88349447 -2.08490652 -11.52554714 -4.54501609 0 0 Z " fill="#082C62" transform="translate(543.9375,490.625)"/>
<path d="M0 0 C3.02214861 1.51107431 4.15310978 4.22966467 6 7 C6.2475 7.7425 6.495 8.485 6.75 9.25 C10.14897222 16.72773889 16.37136527 21.70771967 23.87817383 24.76489258 C29.89014107 26.96305367 35.70522727 27.70528516 42.0625 28.1875 C43.02349609 28.26935547 43.98449219 28.35121094 44.97460938 28.43554688 C47.31577773 28.63355614 49.65727632 28.82151592 52 29 C52 29.66 52 30.32 52 31 C44.74 31 37.48 31 30 31 C30 30.34 30 29.68 30 29 C28.90558594 28.81050781 28.90558594 28.81050781 27.7890625 28.6171875 C17.0806646 26.24754203 8.43740325 18.59584385 2.41796875 9.6484375 C0.59514229 6.20889923 0 3.92831549 0 0 Z " fill="#0B2D60" transform="translate(387,540)"/>
<path d="M0 0 C-0.33 5.61 -0.66 11.22 -1 17 C-1.66 17 -2.32 17 -3 17 C-3 12.05 -3 7.1 -3 2 C-11.25 2 -19.5 2 -28 2 C-28 7.28 -28 12.56 -28 18 C-29.65 18.33 -31.3 18.66 -33 19 C-32.26330078 18.51080078 -32.26330078 18.51080078 -31.51171875 18.01171875 C-29.16414053 14.88768055 -29.68508278 11.55333882 -29.8125 7.8125 C-29.82603516 7.06291016 -29.83957031 6.31332031 -29.85351562 5.54101562 C-29.88881461 3.69370233 -29.94262083 1.84675934 -30 0 C-26.04924621 -0.16755938 -22.09827679 -0.3281242 -18.14697266 -0.48217773 C-16.14079929 -0.56187238 -14.13484924 -0.64712518 -12.12890625 -0.73242188 C-10.87207031 -0.78076172 -9.61523438 -0.82910156 -8.3203125 -0.87890625 C-6.57645264 -0.94960327 -6.57645264 -0.94960327 -4.79736328 -1.02172852 C-2 -1 -2 -1 0 0 Z " fill="#0B336A" transform="translate(155,415)"/>
<path d="M0 0 C0.66 0.33 1.32 0.66 2 1 C2 7.27 2 13.54 2 20 C-0.79700492 21.39850246 -2.98115359 21.0101384 -6.1015625 20.87890625 C-7.91914063 20.80639648 -7.91914063 20.80639648 -9.7734375 20.73242188 C-11.04445312 20.67634766 -12.31546875 20.62027344 -13.625 20.5625 C-15.543125 20.48418945 -15.543125 20.48418945 -17.5 20.40429688 C-20.666897 20.2743123 -23.83350287 20.13933598 -27 20 C-27.0272616 17.95840905 -27.04651345 15.91671037 -27.0625 13.875 C-27.07410156 12.73804688 -27.08570312 11.60109375 -27.09765625 10.4296875 C-27.005327 7.1870844 -26.61389906 4.18067388 -26 1 C-25.34 1 -24.68 1 -24 1 C-24 6.61 -24 12.22 -24 18 C-16.08 18 -8.16 18 0 18 C0 12.06 0 6.12 0 0 Z " fill="#06316C" transform="translate(152,570)"/>
<path d="M0 0 C0.33 0 0.66 0 1 0 C0.96519531 1.18335938 0.93039063 2.36671875 0.89453125 3.5859375 C0.63195006 16.11822145 0.93819664 26.44029536 10 36 C16.42068495 42.22611874 23.59980264 45.18262314 32 48 C32 48.33 32 48.66 32 49 C23.4254752 49.52159572 16.03997227 44.97168015 9.5625 39.625 C2.25145283 32.67798837 -1.31393816 24.35372538 -2.25 14.3203125 C-2.37517273 9.17258385 -1.68886764 4.85549447 0 0 Z " fill="#0A3065" transform="translate(90,462)"/>
<path d="M0 0 C11.85261403 0.29075677 22.46802816 4.93644696 30.68359375 13.44140625 C35.74360504 19.52430154 40.96701046 27.3975892 41 35.5625 C40.896875 36.490625 40.79375 37.41875 40.6875 38.375 C38.81194381 35.56166571 37.96938517 33.42712013 36.9375 30.25 C33.12471653 19.59953105 26.63937881 11.56089152 16.62109375 6.18359375 C9.47123754 3.19365388 1.32647144 2.92686486 -6.3125 2.375 C-3.91431067 -0.02318933 -3.29050829 0.05385447 0 0 Z " fill="#082D64" transform="translate(539.3125,468.625)"/>
<path d="M0 0 C-1.2065625 0.09796875 -2.413125 0.1959375 -3.65625 0.296875 C-5.27091175 0.44707609 -6.88549105 0.5981653 -8.5 0.75 C-9.29148438 0.811875 -10.08296875 0.87375 -10.8984375 0.9375 C-17.46172445 1.58306921 -23.49559495 3.18254431 -28 8.25 C-29.3470926 11.95450466 -29.69470895 15.10805098 -29 19 C-26.3159289 23.83132797 -22.98183796 25.17971305 -18 27 C-18 27.66 -18 28.32 -18 29 C-23.44533513 28.61104749 -26.12686961 26.7851047 -30 23 C-32.56985281 18.76061696 -32.64002478 14.83387137 -32 10 C-29.62549783 4.38754032 -25.774738 2.39438796 -20.44921875 -0.03125 C-14.23014471 -2.49110704 -5.74168635 -3.8277909 0 0 Z " fill="#082E67" transform="translate(148,456)"/>
<path d="M0 0 C9.43782661 0.0371568 17.7151396 2.45377166 24.984375 8.70703125 C32.39986781 16.83837609 32.39847498 24.3592423 32 35 C31.01 35.495 31.01 35.495 30 36 C29.97421875 35.01 29.9484375 34.02 29.921875 33 C29.56746498 23.60813444 28.86794875 16.38292211 21.75 9.6875 C15.33777229 4.66390759 7.86768456 3.37039588 0 2 C0 1.34 0 0.68 0 0 Z " fill="#0B3269" transform="translate(920,510)"/>
<path d="M0 0 C0.33 0 0.66 0 1 0 C1.02578125 0.9178125 1.0515625 1.835625 1.078125 2.78125 C1.42534059 10.29373269 2.14728215 15.53737651 6 22 C6 22.66 6 23.32 6 24 C6.58910156 24.29132812 7.17820312 24.58265625 7.78515625 24.8828125 C9.68855148 25.84290251 11.56597854 26.85417012 13.4375 27.875 C18.11558118 30.23606545 23.02246487 31.6296641 28.046875 33.0703125 C30.54779152 33.85763807 32.70918033 34.74338533 35 36 C25.25716135 36.90631057 14.55360036 33.15412096 7 27 C0.83588927 20.83588927 -1.15836231 15.14589737 -1.25 6.5625 C-1.16899619 1.16899619 -1.16899619 1.16899619 0 0 Z " fill="#0A2D61" transform="translate(877,493)"/>
<path d="M0 0 C0 1.65 0 3.3 0 5 C-0.33 4.01 -0.66 3.02 -1 2 C-8.92 2 -16.84 2 -25 2 C-23.40471595 6.66804145 -23.40471595 6.66804145 -21.79907227 11.33251953 C-20.49245696 15.20354455 -19.5510019 18.93398601 -19 23 C-21.6566205 20.68405587 -22.70305741 18.6532073 -23.82421875 15.33203125 C-24.13037109 14.43935547 -24.43652344 13.54667969 -24.75195312 12.62695312 C-25.06068359 11.69818359 -25.36941406 10.76941406 -25.6875 9.8125 C-26.00783203 8.87212891 -26.32816406 7.93175781 -26.65820312 6.96289062 C-27.44670092 4.64447175 -28.22694548 2.32360457 -29 0 C-24.72953289 -0.19656362 -20.45861919 -0.38070249 -16.1875 -0.5625 C-14.97255859 -0.61857422 -13.75761719 -0.67464844 -12.50585938 -0.73242188 C-11.34248047 -0.78076172 -10.17910156 -0.82910156 -8.98046875 -0.87890625 C-7.90692139 -0.9260376 -6.83337402 -0.97316895 -5.72729492 -1.02172852 C-3 -1 -3 -1 0 0 Z " fill="#08316A" transform="translate(316,471)"/>
<path d="M0 0 C2.296875 -0.25390625 2.296875 -0.25390625 5 0 C6.703125 1.66015625 6.703125 1.66015625 8.25 4.0625 C8.8378125 4.96355469 9.425625 5.86460937 10.03125 6.79296875 C12.6847956 11.11551029 15.32465783 15.44588285 17.89160156 19.82055664 C19.42289465 22.42573913 20.92380444 24.90589522 22.828125 27.2578125 C23.21484375 27.83273437 23.6015625 28.40765625 24 29 C23.67 29.99 23.34 30.98 23 32 C18.02513018 25.56602031 13.62950112 18.93631541 9.5 11.9375 C9.05479004 11.18734619 8.60958008 10.43719238 8.15087891 9.66430664 C7.74015137 8.95910889 7.32942383 8.25391113 6.90625 7.52734375 C6.53822266 6.89562256 6.17019531 6.26390137 5.79101562 5.61303711 C5 4 5 4 5 2 C1.7 4.64 -1.6 7.28 -5 10 C-5.66 9.67 -6.32 9.34 -7 9 C-6.4946875 8.51789062 -5.989375 8.03578125 -5.46875 7.5390625 C-4.8190625 6.90742187 -4.169375 6.27578125 -3.5 5.625 C-2.8503125 4.99851562 -2.200625 4.37203125 -1.53125 3.7265625 C0.22117431 2.13524093 0.22117431 2.13524093 0 0 Z " fill="#08295C" transform="translate(819,528)"/>
<path d="M0 0 C-1.41539062 0.03867187 -1.41539062 0.03867187 -2.859375 0.078125 C-14.10576314 0.57495339 -23.92773283 2.38421011 -33.37890625 8.94921875 C-35 10 -35 10 -38 11 C-38.309375 11.61875 -38.61875 12.2375 -38.9375 12.875 C-40.20298687 15.40597375 -41.67272837 16.44848558 -44 18 C-43.00395223 12.23805276 -38.56037471 8.93715977 -34.07421875 5.54296875 C-25.46975692 -0.16460012 -9.39869227 -6.26579485 0 0 Z " fill="#0B346C" transform="translate(437,471)"/>
<path d="M0 0 C0.66 0 1.32 0 2 0 C2.87409647 31.60643184 2.87409647 31.60643184 -6 44 C-8.16015625 45.26953125 -8.16015625 45.26953125 -10 46 C-9.60167969 45.27296875 -9.20335937 44.5459375 -8.79296875 43.796875 C-1.19050789 29.36884709 -0.38719264 16.02678047 0 0 Z " fill="#0A3067" transform="translate(580,508)"/>
<path d="M0 0 C2.86795939 2.86795939 4.18829601 5.07676405 5 9 C5.66 9.66 6.32 10.32 7 11 C5.68 11 4.36 11 3 11 C2.62875 9.906875 2.2575 8.81375 1.875 7.6875 C0.64694794 4.90466643 -0.00500938 3.99611773 -2.5 2.0625 C-8.41791304 0.26599068 -14.42954134 -0.18241098 -20.125 2.4375 C-23.05731872 4.88109893 -23.18510619 5.73464849 -23.5625 9.5625 C-23.64628906 10.38878906 -23.73007812 11.21507812 -23.81640625 12.06640625 C-23.87699219 12.70449219 -23.93757812 13.34257812 -24 14 C-24.66 13.67 -25.32 13.34 -26 13 C-26.66964286 5.23214286 -26.66964286 5.23214286 -23.75 1.5625 C-17.69769183 -4.07715079 -7.24567796 -3.04318474 0 0 Z " fill="#092F67" transform="translate(924,489)"/>
<path d="M0 0 C0.5775 0.226875 1.155 0.45375 1.75 0.6875 C1.16992188 1.11160156 0.58984375 1.53570312 -0.0078125 1.97265625 C-11.00847533 10.23222983 -16.25924928 18.62686129 -20.25 31.6875 C-20.58 31.6875 -20.91 31.6875 -21.25 31.6875 C-20.60712218 18.40135839 -13.85660612 9.61991753 -4.22265625 0.83984375 C-2.25 -0.3125 -2.25 -0.3125 0 0 Z " fill="#092D64" transform="translate(711.25,475.3125)"/>
<path d="M0 0 C8.10220111 1.73618595 15.23891838 3.76315594 20 11 C21.73348019 14.46696038 21.47699379 18.20948937 21 22 C18.07317073 27.46341463 18.07317073 27.46341463 15 29 C15.46443268 26.83264747 15.93550065 25.1100283 17.0625 23.1875 C18.4337291 19.98796543 18.30216641 17.44469706 18 14 C14.857923 6.49392716 7.03374171 3.93854098 0 1 C0 0.67 0 0.34 0 0 Z " fill="#093068" transform="translate(144,516)"/>
<path d="M0 0 C2.51815182 1.25907591 2.69260426 2.21474667 3.8125 4.75 C7.52812665 12.39981956 13.47068064 16.34505639 21.25 19.1875 C26.1424172 20.24752373 31.01198717 20.65724324 36 21 C36 21.33 36 21.66 36 22 C25.90056838 22.48477272 16.95808207 22.7950318 8.71875 16.1640625 C4.89168331 12.54498857 1.82527739 9.01951282 0 4 C0 2.68 0 1.36 0 0 Z " fill="#0A2858" transform="translate(595,548)"/>
<path d="M0 0 C-2.2248543 2.2248543 -3.55214911 2.59698555 -6.5 3.5625 C-15.91507295 7.24961672 -22.12577935 14.16968896 -26.84375 22.93359375 C-28 25 -28 25 -30 27 C-29.58605888 18.92814808 -24.34513463 13.0082527 -18.6875 7.6875 C-13.42164563 3.23860786 -7.19443757 -0.92831453 0 0 Z " fill="#0B3064" transform="translate(121,434)"/>
<path d="M0 0 C0.66 0 1.32 0 2 0 C2.804375 1.11375 2.804375 1.11375 3.625 2.25 C9.81793841 9.42077079 19.40118226 10.96203397 28.4375 11.625 C30.62457224 11.7572734 32.8119683 11.88468071 35 12 C34.67 12.66 34.34 13.32 34 14 C23.08466452 14.63379367 13.19406848 13.34590596 4 7 C4 6.34 4 5.68 4 5 C3.34 5 2.68 5 2 5 C1.34 3.35 0.68 1.7 0 0 Z " fill="#0D3166" transform="translate(207,557)"/>
<path d="M0 0 C9.69174595 0.35895355 17.06408221 5.28094974 23.58984375 12.26953125 C25.58300265 14.71542985 26.94296101 17.02707784 28 20 C27.5625 22.17578125 27.5625 22.17578125 27 24 C26.72027344 23.43152344 26.44054687 22.86304688 26.15234375 22.27734375 C20.05771206 10.53880877 12.06140277 5.74300714 0 1 C0 0.67 0 0.34 0 0 Z " fill="#092F66" transform="translate(159,434)"/>
<path d="M0 0 C0.66 0 1.32 0 2 0 C3.2733606 3.69539298 4.53633958 7.39416328 5.7902832 11.09619141 C6.42583387 12.9656837 7.06929038 14.83248235 7.71289062 16.69921875 C9.78502221 22.83272824 11.55504177 28.52788035 12 35 C9.17817796 32.17817796 8.33125632 28.76194722 7.0625 25.0625 C6.66381714 23.91539551 6.66381714 23.91539551 6.25708008 22.74511719 C3.69030937 15.26755762 1.50097514 7.76651359 0 0 Z " fill="#06306B" transform="translate(325,505)"/>
<path d="M0 0 C8.60681712 -0.99309428 15.27030453 2.67755547 22.21875 7.55859375 C25.55227331 10.27767526 28.264937 12.98766682 30 17 C29.67 17.99 29.34 18.98 29 20 C28.41605469 19.12988281 28.41605469 19.12988281 27.8203125 18.2421875 C23.36807208 12.02546471 18.77619895 8.46187718 12 5 C11.31679688 4.62746094 10.63359375 4.25492187 9.9296875 3.87109375 C7.78438519 2.79223515 7.78438519 2.79223515 4.3125 2.5 C3.219375 2.335 2.12625 2.17 1 2 C0.67 1.34 0.34 0.68 0 0 Z " fill="#09326D" transform="translate(438,471)"/>
<path d="M0 0 C0.99 0.33 1.98 0.66 3 1 C8.13915487 11.31488735 8.2136646 23.73079083 9 35 C8.01 35 7.02 35 6 35 C5.94392578 33.49373047 5.94392578 33.49373047 5.88671875 31.95703125 C5.38451367 20.8209414 3.62998981 10.59139885 0 0 Z " fill="#0B326A" transform="translate(468,492)"/>
<path d="M0 0 C1.10958552 3.32875657 0.91963643 4.00105167 -0.14453125 7.1953125 C-0.40943359 7.99324219 -0.67433594 8.79117188 -0.94726562 9.61328125 C-1.23279297 10.44214844 -1.51832031 11.27101563 -1.8125 12.125 C-2.08642578 12.96160156 -2.36035156 13.79820312 -2.64257812 14.66015625 C-4.74125427 20.87062713 -4.74125427 20.87062713 -7 22 C-9.03418907 22.01633666 -11.06910445 21.96438346 -13.1015625 21.87890625 C-14.91914063 21.80639648 -14.91914063 21.80639648 -16.7734375 21.73242188 C-18.04445313 21.67634766 -19.31546875 21.62027344 -20.625 21.5625 C-22.543125 21.48418945 -22.543125 21.48418945 -24.5 21.40429688 C-27.666897 21.2743123 -30.83350287 21.13933598 -34 21 C-34 20.67 -34 20.34 -34 20 C-25.09 20 -16.18 20 -7 20 C-6.34 17.36 -5.68 14.72 -5 12 C-4.34633419 10.00940261 -3.66257963 8.02821017 -2.9375 6.0625 C-2.59589844 5.12535156 -2.25429688 4.18820312 -1.90234375 3.22265625 C-1 1 -1 1 0 0 Z " fill="#072F67" transform="translate(358,546)"/>
<path d="M0 0 C0.33 0 0.66 0 1 0 C1.1707967 4.28231102 1.33092253 8.56486512 1.48217773 12.84790039 C1.53475561 14.29754742 1.58999056 15.74710111 1.64819336 17.1965332 C2.0482548 27.21894209 1.87159422 37.00166003 1 47 C-1 45 -1 45 -1.23046875 41.0546875 C-1.227751 39.32806773 -1.21249598 37.60144097 -1.1875 35.875 C-1.18105469 34.95952393 -1.17460938 34.04404785 -1.16796875 33.10083008 C-1.04905109 22.05913971 -0.54138329 11.02780489 0 0 Z " fill="#031B4A" transform="translate(811,440)"/>
<path d="M0 0 C5.02210841 1.43488812 7.04714931 3.86600903 10 8 C10 8.99 10 9.98 10 11 C17.92 11.33 25.84 11.66 34 12 C34 12.33 34 12.66 34 13 C30.87549468 13.19645093 27.75038555 13.38063489 24.625 13.5625 C23.73554688 13.61857422 22.84609375 13.67464844 21.9296875 13.73242188 C20.65351563 13.80493164 20.65351563 13.80493164 19.3515625 13.87890625 C18.56604004 13.9260376 17.78051758 13.97316895 16.97119141 14.02172852 C15 14 15 14 13 13 C13 13.66 13 14.32 13 15 C9.63178735 13.61560751 8.26541301 12.28604356 6.5 9.125 C4.63983925 5.9517846 2.71550095 3.51435273 0 1 C0 0.67 0 0.34 0 0 Z " fill="#082A5E" transform="translate(153,457)"/>
<path d="M0 0 C7.92 0 15.84 0 24 0 C24 0.33 24 0.66 24 1 C19.14270355 1.97299156 14.5499375 2.12038805 9.625 2.0625 C8.88894531 2.05798828 8.15289062 2.05347656 7.39453125 2.04882812 C5.59631842 2.03715142 3.79814803 2.01922011 2 2 C2 6.62 2 11.24 2 16 C-1 13 -1 13 -1.328125 10.37109375 C-1.28945313 8.91896484 -1.28945313 8.91896484 -1.25 7.4375 C-1.23453125 6.46683594 -1.2190625 5.49617188 -1.203125 4.49609375 C-1 2 -1 2 0 0 Z " fill="#10407B" transform="translate(487,436)"/>
<path d="M0 0 C-2.92262096 1.94841398 -5.54824514 3.05196385 -8.8125 4.3125 C-17.80780604 8.07318819 -21.29095939 11.66118321 -25.1171875 20.76953125 C-25.40851563 21.50558594 -25.69984375 22.24164062 -26 23 C-26.33 23 -26.66 23 -27 23 C-27.51102567 17.63423043 -26.38862598 15.15106683 -23 11 C-16.76432538 4.53910914 -9.3976903 -0.96386567 0 0 Z " fill="#092C60" transform="translate(230,513)"/>
<path d="M0 0 C0.495 1.485 0.495 1.485 1 3 C-3.49998618 3.02922653 -7.99994765 3.04687482 -12.5 3.0625 C-13.7684375 3.07087891 -15.036875 3.07925781 -16.34375 3.08789062 C-22.66083499 3.10434137 -28.75810372 3.00091014 -35 2 C-35 1.67 -35 1.34 -35 1 C-31.22933539 0.82936937 -27.45844778 0.66424375 -23.6875 0.5 C-22.1087207 0.42845703 -22.1087207 0.42845703 -20.49804688 0.35546875 C-13.66024136 0.06091713 -6.84391539 -0.06137276 0 0 Z " fill="#042255" transform="translate(444,509)"/>
<path d="M0 0 C1 3 1 3 -1 8 C-8.92 8 -16.84 8 -25 8 C-25 6.35 -25 4.7 -25 3 C-24.01 3 -23.02 3 -22 3 C-22 3.99 -22 4.98 -22 6 C-15.4 6 -8.8 6 -2 6 C-1.67 4.68 -1.34 3.36 -1 2 C-0.67 1.34 -0.34 0.68 0 0 Z " fill="#0C356F" transform="translate(230,494)"/>
<path d="M0 0 C-2.23017924 2.23017924 -3.67469476 2.67818505 -6.625 3.6875 C-13.7675146 6.48464083 -19.00168026 10.52648373 -22.5 17.4375 C-22.995 18.613125 -23.49 19.78875 -24 21 C-25.12290334 17.61651494 -25.05836106 17.13131238 -23.5 13.625 C-18.56779133 5.73684435 -9.59323069 -0.95932307 0 0 Z " fill="#0A2F64" transform="translate(903,471)"/>
<path d="M0 0 C-6.07044844 3.51447015 -10.40771436 4.59308637 -17.375 4.375 C-18.18066406 4.37371094 -18.98632812 4.37242187 -19.81640625 4.37109375 C-25.71787309 4.28212691 -25.71787309 4.28212691 -28 2 C-26.77023438 1.95101562 -25.54046875 1.90203125 -24.2734375 1.8515625 C-22.64060434 1.77648971 -21.00779288 1.70094385 -19.375 1.625 C-18.56675781 1.5940625 -17.75851563 1.563125 -16.92578125 1.53125 C-11.1266872 1.24836736 -5.49072229 -1.66549472 0 0 Z " fill="#072E66" transform="translate(158,546)"/>
<path d="M0 0 C0.33 0 0.66 0 1 0 C1.06058594 1.09957031 1.12117188 2.19914063 1.18359375 3.33203125 C1.64715164 11.57067673 2.1664477 19.78862311 3 28 C2.34 27.67 1.68 27.34 1 27 C-0.93428485 20.9822249 -1.18095507 15.26742826 -1.1875 9 C-1.18830566 8.23365234 -1.18911133 7.46730469 -1.18994141 6.67773438 C-1.13400694 1.13400694 -1.13400694 1.13400694 0 0 Z " fill="#0B326A" transform="translate(384,511)"/>
<path d="M0 0 C0.58007812 0.21398437 1.16015625 0.42796875 1.7578125 0.6484375 C-3.9921875 4.6484375 -3.9921875 4.6484375 -6.2421875 4.6484375 C-6.2421875 5.3084375 -6.2421875 5.9684375 -6.2421875 6.6484375 C-6.9640625 7.3084375 -7.6859375 7.9684375 -8.4296875 8.6484375 C-12.22538494 12.23808279 -14.10327121 16.96102521 -16.2421875 21.6484375 C-16.5721875 21.6484375 -16.9021875 21.6484375 -17.2421875 21.6484375 C-16.92428614 14.17775552 -13.58126559 8.8337001 -8.20703125 3.70703125 C-3.01808889 -0.47321951 -3.01808889 -0.47321951 0 0 Z " fill="#0A2E65" transform="translate(224.2421875,474.3515625)"/>
<path d="M0 0 C0.33 0.99 0.66 1.98 1 3 C-2.98246292 10.21148691 -10.44449958 14.37199985 -18 17 C-21.37109375 17.15625 -21.37109375 17.15625 -24 17 C-20.21754269 14.47836179 -16.23357794 13.05565058 -12.0078125 11.4140625 C-6.32610722 8.74292314 -3.25606125 5.30617389 0 0 Z " fill="#0D2F60" transform="translate(947,552)"/>
<path d="M0 0 C1.03125 0.09345703 2.0625 0.18691406 3.125 0.28320312 C4.74535156 0.43885742 4.74535156 0.43885742 6.3984375 0.59765625 C7.48640625 0.69755859 8.574375 0.79746094 9.6953125 0.90039062 C12.38854699 1.1484517 15.08116193 1.40192789 17.7734375 1.66015625 C17.7734375 2.32015625 17.7734375 2.98015625 17.7734375 3.66015625 C10.5134375 3.66015625 3.2534375 3.66015625 -4.2265625 3.66015625 C-4.2265625 3.00015625 -4.2265625 2.34015625 -4.2265625 1.66015625 C-5.2165625 1.33015625 -6.2065625 1.00015625 -7.2265625 0.66015625 C-4.58544029 -0.66040485 -2.93472984 -0.27412312 0 0 Z " fill="#10356B" transform="translate(421.2265625,567.33984375)"/>
<path d="M0 0 C0.66 0 1.32 0 2 0 C2 8.25 2 16.5 2 25 C1.34 24.67 0.68 24.34 0 24 C-0.34586944 21.44658129 -0.56417132 19.00365226 -0.6875 16.4375 C-0.7280249 15.71111328 -0.7685498 14.98472656 -0.81030273 14.23632812 C-1.04250295 9.36285537 -0.90189013 4.81008072 0 0 Z " fill="#0A326C" transform="translate(688,508)"/>
<path d="M0 0 C6.71447787 0.11762589 15.80206986 1.48956986 20.6875 6.375 C17.97962819 6.52973553 16.0670702 6.54245744 13.5625 5.4375 C9.71121921 4.01420058 5.94197193 3.66590157 1.875 3.25 C1.08673828 3.16363281 0.29847656 3.07726562 -0.51367188 2.98828125 C-2.44593084 2.77748936 -4.37913263 2.57537104 -6.3125 2.375 C-3.91431067 -0.02318933 -3.29050829 0.05385447 0 0 Z " fill="#0B346E" transform="translate(539.3125,468.625)"/>
<path d="M0 0 C2.59121224 2.59121224 2.64674398 4.41493567 3.25 8 C3.44078125 9.0725 3.6315625 10.145 3.828125 11.25 C3.91320312 12.61125 3.91320312 12.61125 4 14 C2 16 2 16 0.01171875 16.23046875 C-4.10571926 16.15434805 -7.9855214 16.03599448 -12 15 C-12 14.67 -12 14.34 -12 14 C-6.06 13.505 -6.06 13.505 0 13 C0 8.71 0 4.42 0 0 Z " fill="#0F4382" transform="translate(187,456)"/>
<path d="M0 0 C2.475 0.495 2.475 0.495 5 1 C5.268125 2.258125 5.53625 3.51625 5.8125 4.8125 C6.61144595 8.07150972 7.34997865 9.83180072 10 12 C10 12.66 10 13.32 10 14 C11.7015625 14.433125 11.7015625 14.433125 13.4375 14.875 C14.613125 15.24625 15.78875 15.6175 17 16 C17.33 16.66 17.66 17.32 18 18 C12.95873349 17.75408456 10.16592302 16.11946098 6.5390625 12.828125 C4.0361042 9.85506793 3.18376696 6.67590793 2 3 C1.34 2.67 0.68 2.34 0 2 C0 1.34 0 0.68 0 0 Z " fill="#093068" transform="translate(111,530)"/>
<path d="M0 0 C3.29599122 0.38776367 5.0840918 1.05667056 7.875 2.9375 C14.06478054 7.02275516 20.78626781 7.44844704 28 8 C28 8.33 28 8.66 28 9 C18.77573427 9.59811521 11.75815487 9.34888412 4 4 C1.375 1.6875 1.375 1.6875 0 0 Z " fill="#0C2C5E" transform="translate(515,561)"/>
<path d="M0 0 C0.66 0 1.32 0 2 0 C-1.12596163 7.00698645 -7.15791914 10.40008411 -13.984375 13.3359375 C-16 14 -16 14 -19 14 C-19 13.34 -19 12.68 -19 12 C-18.45472656 11.78085937 -17.90945313 11.56171875 -17.34765625 11.3359375 C-7.27069098 7.37123985 -7.27069098 7.37123985 0 0 Z " fill="#0B336A" transform="translate(568,555)"/>
<path d="M0 0 C2.06132142 -0.10864945 4.12431321 -0.18588321 6.1875 -0.25 C7.33605469 -0.29640625 8.48460937 -0.3428125 9.66796875 -0.390625 C13.6611926 0.07751379 15.20549415 1.16484679 18 4 C19.1875 7.125 19.1875 7.125 20 10 C20.66 10.66 21.32 11.32 22 12 C20.68 12 19.36 12 18 12 C17.62875 10.906875 17.2575 9.81375 16.875 8.6875 C15.62073176 5.81313529 15.03783147 5.02702248 12.375 3.125 C8.25220803 1.75073601 4.32080132 1.27845164 0 1 C0 0.67 0 0.34 0 0 Z " fill="#103C74" transform="translate(909,488)"/>
<path d="M0 0 C8.25 0 16.5 0 25 0 C25 0.33 25 0.66 25 1 C14.11 1.495 14.11 1.495 3 2 C3.33 3.98 3.66 5.96 4 8 C3.01 9.485 3.01 9.485 2 11 C1.34 7.37 0.68 3.74 0 0 Z " fill="#0B3B77" transform="translate(872,537)"/>
<path d="M0 0 C2.25 -0.375 2.25 -0.375 5 0 C7.3125 3 7.3125 3 9 6 C8.34 6.66 7.68 7.32 7 8 C6.34 6.02 5.68 4.04 5 2 C1.7 4.64 -1.6 7.28 -5 10 C-5.66 9.67 -6.32 9.34 -7 9 C-6.4946875 8.51789062 -5.989375 8.03578125 -5.46875 7.5390625 C-4.8190625 6.90742187 -4.169375 6.27578125 -3.5 5.625 C-2.8503125 4.99851562 -2.200625 4.37203125 -1.53125 3.7265625 C0.22117431 2.13524093 0.22117431 2.13524093 0 0 Z " fill="#09326B" transform="translate(819,528)"/>
<path d="M0 0 C-0.33 0.66 -0.66 1.32 -1 2 C-2.175625 2.391875 -3.35125 2.78375 -4.5625 3.1875 C-9.68837751 4.96718984 -13.1580186 8.27041699 -17 12 C-17.33 11.01 -17.66 10.02 -18 9 C-7.4375 -0.65625 -7.4375 -0.65625 0 0 Z " fill="#082D63" transform="translate(532,471)"/>
<path d="M0 0 C4.2726657 0.47474063 6.273802 2.84334968 9 6 C11.43950169 10.29816965 11.16334608 14.18129062 11 19 C10.67 19 10.34 19 10 19 C9.78085937 18.10796875 9.56171875 17.2159375 9.3359375 16.296875 C7.69484392 8.74862858 7.69484392 8.74862858 2.75 3.3125 C1.8425 2.879375 0.935 2.44625 0 2 C0 1.34 0 0.68 0 0 Z " fill="#092E64" transform="translate(253,490)"/>
<path d="M0 0 C1.07765625 0.01804687 2.1553125 0.03609375 3.265625 0.0546875 C4.49539062 0.08949219 4.49539062 0.08949219 5.75 0.125 C6.08 0.785 6.41 1.445 6.75 2.125 C5.72519531 2.25777344 4.70039063 2.39054687 3.64453125 2.52734375 C2.2838426 2.70564088 0.92316615 2.88403123 -0.4375 3.0625 C-1.11103516 3.14951172 -1.78457031 3.23652344 -2.47851562 3.32617188 C-6.10081166 3.80325477 -9.67803585 4.35512035 -13.25 5.125 C-9.21669172 0.6883609 -5.95468991 -0.12944978 0 0 Z " fill="#0A2C61" transform="translate(245.25,487.875)"/>
<path d="M0 0 C0.99 0 1.98 0 3 0 C3.33 1.32 3.66 2.64 4 4 C3.34 4 2.68 4 2 4 C2 11.92 2 19.84 2 28 C1.67 28 1.34 28 1 28 C1 20.08 1 12.16 1 4 C0.34 4 -0.32 4 -1 4 C-0.67 2.68 -0.34 1.36 0 0 Z " fill="#093878" transform="translate(809,436)"/>
<path d="M0 0 C0.98484375 0.01804687 1.9696875 0.03609375 2.984375 0.0546875 C4.10585938 0.08949219 4.10585938 0.08949219 5.25 0.125 C5.25 0.455 5.25 0.785 5.25 1.125 C4.4146875 1.14626953 4.4146875 1.14626953 3.5625 1.16796875 C-3.59403278 1.61525205 -8.67424337 4.04924337 -13.75 9.125 C-14.74 8.795 -15.73 8.465 -16.75 8.125 C-15.67130607 7.16144756 -14.58681257 6.20438583 -13.5 5.25 C-12.59507812 4.44949219 -12.59507812 4.44949219 -11.671875 3.6328125 C-7.73336733 0.5428451 -5.01715005 -0.11945595 0 0 Z " fill="#082251" transform="translate(428.75,487.875)"/>
<path d="M0 0 C0.33 0 0.66 0 1 0 C1.79681084 8.02502344 2.12867289 15.93649887 2 24 C1.34 24 0.68 24 0 24 C-0.76299944 15.85351368 -1.21521251 8.11388044 0 0 Z " fill="#04214F" transform="translate(487,440)"/>
<path d="M0 0 C1.37562854 1.28965176 2.70766393 2.62689293 4 4 C4 4.66 4 5.32 4 6 C12.25 6 20.5 6 29 6 C29 6.33 29 6.66 29 7 C24.72939382 7.11589162 20.45919016 7.18714802 16.1875 7.25 C14.97255859 7.28351562 13.75761719 7.31703125 12.50585938 7.3515625 C10.76079102 7.37089844 10.76079102 7.37089844 8.98046875 7.390625 C7.37014771 7.4220459 7.37014771 7.4220459 5.72729492 7.45410156 C3 7 3 7 1.1262207 5.16308594 C0 3 0 3 0 0 Z " fill="#041C46" transform="translate(844,561)"/>
<path d="M0 0 C6.78661213 0.78914095 13.36149367 2.41274811 20 4 C20 4.33 20 4.66 20 5 C12.91923749 5.40850553 6.80074041 3.90420731 0 2 C0 1.34 0 0.68 0 0 Z " fill="#0A2F64" transform="translate(123,511)"/>
<path d="M0 0 C3.77041535 0.73313632 7.51301263 1.54927517 11.25 2.4375 C12.83554687 2.80681641 12.83554687 2.80681641 14.453125 3.18359375 C15.71382812 3.58771484 15.71382812 3.58771484 17 4 C17.33 4.66 17.66 5.32 18 6 C11.68609846 6.54903492 6.60731414 4.94330282 1 2 C0.67 1.34 0.34 0.68 0 0 Z " fill="#09336D" transform="translate(901,504)"/>
<path d="M0 0 C1.3274855 3.98245651 -0.00092171 6.44789543 -1.4375 10.1875 C-1.80198242 11.16879883 -1.80198242 11.16879883 -2.17382812 12.16992188 C-2.7743293 13.78303286 -3.38609203 15.3919435 -4 17 C-4.33 17 -4.66 17 -5 17 C-4.15533981 4.15533981 -4.15533981 4.15533981 0 0 Z " fill="#092E64" transform="translate(354,491)"/>
<path d="M0 0 C0.66 0.33 1.32 0.66 2 1 C-3.46691762 5.87106829 -7.62628201 7.96586242 -15 8 C-12.05213324 6.03475549 -9.09027063 4.42527817 -5.9375 2.8125 C-4.87402344 2.26207031 -3.81054688 1.71164062 -2.71484375 1.14453125 C-1.81894531 0.76683594 -0.92304688 0.38914062 0 0 Z " fill="#0A2D61" transform="translate(258,561)"/>
<path d="M0 0 C3.02214861 1.51107431 4.15310978 4.22966467 6 7 C6.38499891 8.65549531 6.72793135 10.3222433 7 12 C6.01 12 5.02 12 4 12 C3.32332002 10.75539217 2.65905281 9.50403104 2 8.25 C1.62875 7.55390625 1.2575 6.8578125 0.875 6.140625 C0 4 0 4 0 0 Z " fill="#0B326C" transform="translate(387,540)"/>
<path d="M0 0 C0.33 0 0.66 0 1 0 C1.97352262 5.59775505 2.61204357 11.32562999 2 17 C1.34 17.66 0.68 18.32 0 19 C-0.8931507 12.41816638 -0.95494281 6.57849492 0 0 Z " fill="#042251" transform="translate(487,537)"/>
<path d="M0 0 C-0.66 1.32 -1.32 2.64 -2 4 C-2 3.01 -2 2.02 -2 1 C-9.92 1.33 -17.84 1.66 -26 2 C-26 1.34 -26 0.68 -26 0 C-22.22958744 -0.19670554 -18.45866237 -0.38078426 -14.6875 -0.5625 C-13.61564453 -0.61857422 -12.54378906 -0.67464844 -11.43945312 -0.73242188 C-9.89741211 -0.80493164 -9.89741211 -0.80493164 -8.32421875 -0.87890625 C-7.37635498 -0.9260376 -6.42849121 -0.97316895 -5.4519043 -1.02172852 C-3 -1 -3 -1 0 0 Z " fill="#103A71" transform="translate(780,535)"/>
<path d="M0 0 C0.99 0.33 1.98 0.66 3 1 C-1.75 5 -1.75 5 -4 5 C-4.2475 5.598125 -4.495 6.19625 -4.75 6.8125 C-6.16370012 9.28647521 -7.65055383 10.43370255 -10 12 C-9.42541562 8.43442842 -8.14644352 6.78900304 -5.5625 4.3125 C-4.94503906 3.71050781 -4.32757813 3.10851562 -3.69140625 2.48828125 C-2 1 -2 1 0 0 Z " fill="#082B5E" transform="translate(403,477)"/>
<path d="M0 0 C0.99 0.33 1.98 0.66 3 1 C2.5020163 4.73487777 2.12508244 6.81237635 0 10 C-0.33 9.01 -0.66 8.02 -1 7 C-0.67 6.34 -0.34 5.68 0 5 C-1.65 4.67 -3.3 4.34 -5 4 C-5 3.34 -5 2.68 -5 2 C-3.35 2 -1.7 2 0 2 C0 1.34 0 0.68 0 0 Z " fill="#0B366F" transform="translate(471,537)"/>
<path d="M0 0 C0.99 0.33 1.98 0.66 3 1 C2.01 1.495 2.01 1.495 1 2 C1.22816406 2.60328125 1.45632813 3.2065625 1.69140625 3.828125 C1.97886719 4.62734375 2.26632812 5.4265625 2.5625 6.25 C2.85253906 7.03890625 3.14257812 7.8278125 3.44140625 8.640625 C4.04522837 11.19103452 3.8473932 12.55322229 3 15 C-1.77676538 5.77448747 -1.77676538 5.77448747 0 0 Z " fill="#073069" transform="translate(408,526)"/>
<path d="M0 0 C2 1 2 1 2.61889648 2.81933594 C3.22371138 6.28007049 3.10270093 9.74942684 3.0625 13.25 C3.05798828 13.99507812 3.05347656 14.74015625 3.04882812 15.5078125 C3.03709246 17.3385764 3.0191585 19.16929873 3 21 C2.67 21 2.34 21 2 21 C1.93941406 20.15695312 1.87882813 19.31390625 1.81640625 18.4453125 C1.73261719 17.34960938 1.64882813 16.25390625 1.5625 15.125 C1.48128906 14.03445313 1.40007813 12.94390625 1.31640625 11.8203125 C1.16998297 9.05271029 1.16998297 9.05271029 0 7 C-0.04022391 4.6670134 -0.04320247 2.33293334 0 0 Z " fill="#082556" transform="translate(555,505)"/>
<path d="M0 0 C0.33 0 0.66 0 1 0 C1.33 1.98 1.66 3.96 2 6 C-4.4489191 7.31909709 -10.48755792 6.69508823 -17 6 C-17 5.67 -17 5.34 -17 5 C-9.08 4.505 -9.08 4.505 -1 4 C-0.67 2.68 -0.34 1.36 0 0 Z " fill="#0B4082" transform="translate(262,504)"/>
<path d="M0 0 C3.9018921 0.57805809 6.13461258 2.355027 9 5 C10.875 7.5625 10.875 7.5625 12 10 C11.67 10.99 11.34 11.98 11 13 C10.54109375 12.39671875 10.0821875 11.7934375 9.609375 11.171875 C8.68898438 9.97304688 8.68898438 9.97304688 7.75 8.75 C7.14671875 7.96109375 6.5434375 7.1721875 5.921875 6.359375 C4.06817005 4.08368843 2.11101046 2.03628442 0 0 Z " fill="#082C63" transform="translate(456,478)"/>
<path d="M0 0 C-0.33 0.99 -0.66 1.98 -1 3 C-8.92 2.67 -16.84 2.34 -25 2 C-25 1.67 -25 1.34 -25 1 C-21.20836402 0.8326303 -17.4166864 0.66622322 -13.625 0.5 C-12.54476562 0.45230469 -11.46453125 0.40460937 -10.3515625 0.35546875 C-9.3203125 0.31035156 -8.2890625 0.26523437 -7.2265625 0.21875 C-6.27346191 0.17685547 -5.32036133 0.13496094 -4.33837891 0.09179688 C-2.89304218 0.03505783 -1.44644999 0 0 0 Z " fill="#051D49" transform="translate(154,588)"/>
<path d="M0 0 C4.875 4.75 4.875 4.75 6 7 C5.01 7 4.02 7 3 7 C2.67 6.34 2.34 5.68 2 5 C1.67 7.97 1.34 10.94 1 14 C0.67 14 0.34 14 0 14 C-0.19393875 11.85473901 -0.37998676 9.70876323 -0.5625 7.5625 C-0.71912109 5.77005859 -0.71912109 5.77005859 -0.87890625 3.94140625 C-0.91886719 2.97074219 -0.95882813 2.00007812 -1 1 C-0.67 0.67 -0.34 0.34 0 0 Z " fill="#093A79" transform="translate(511,554)"/>
<path d="M0 0 C0.66 0 1.32 0 2 0 C1.67 5.61 1.34 11.22 1 17 C0.67 17 0.34 17 0 17 C-1.33257403 5.47835991 -1.33257403 5.47835991 0 0 Z " fill="#07295D" transform="translate(126,571)"/>
<path d="M0 0 C5.01009707 1.43145631 7.10619424 3.82951522 10 8 C9.67 8.99 9.34 9.98 9 11 C8.443125 10.278125 7.88625 9.55625 7.3125 8.8125 C5.01744765 5.92843935 5.01744765 5.92843935 2.25 3.25 C1.5075 2.5075 0.765 1.765 0 1 C0 0.67 0 0.34 0 0 Z " fill="#0A3168" transform="translate(153,457)"/>
<path d="M0 0 C-0.66 1.32 -1.32 2.64 -2 4 C-2.33 3.34 -2.66 2.68 -3 2 C-5.71446979 1.68758545 -8.33909361 1.48663408 -11.0625 1.375 C-12.20041992 1.31699219 -12.20041992 1.31699219 -13.36132812 1.2578125 C-15.24047195 1.16326438 -17.12020336 1.08053244 -19 1 C-19 0.67 -19 0.34 -19 0 C-16.20865148 -0.19425873 -13.41716313 -0.38069517 -10.625 -0.5625 C-9.8309375 -0.61857422 -9.036875 -0.67464844 -8.21875 -0.73242188 C-2.2265625 -1.11328125 -2.2265625 -1.11328125 0 0 Z " fill="#0F3B74" transform="translate(387,471)"/>
<path d="M0 0 C2.32240046 2.85021875 3.93906527 5.46355091 5 9 C4.546875 11.15625 4.546875 11.15625 4 13 C3.32404685 11.58774074 2.65959941 10.16997095 2 8.75 C1.62875 7.96109375 1.2575 7.1721875 0.875 6.359375 C0 4 0 4 0 0 Z " fill="#082556" transform="translate(292,481)"/>
<path d="M0 0 C0.66 0 1.32 0 2 0 C0.4114658 4.28904235 -2.43127368 6.32345526 -6 9 C-6.66 9 -7.32 9 -8 9 C-8 8.34 -8 7.68 -8 7 C-6.50390625 5.78125 -6.50390625 5.78125 -4.5625 4.5 C-1.77468153 2.7134637 -1.77468153 2.7134637 0 0 Z " fill="#0C2E5F" transform="translate(568,555)"/>
<path d="M0 0 C3.43381201 1.144604 4.58572759 2.72594464 6.79296875 5.5 C8.0937903 7.11655494 9.4941665 8.57342089 11 10 C7.43235179 9.42380903 5.74840503 8.13030516 3.25 5.5625 C2.63640625 4.94503906 2.0228125 4.32757812 1.390625 3.69140625 C0 2 0 2 0 0 Z " fill="#092555" transform="translate(393,552)"/>
<path d="M0 0 C0.66 0 1.32 0 2 0 C3.84827434 3.6125362 5.55049545 7.2089881 7 11 C3.78397182 8.63029503 1.35875408 6.82921605 0 3 C0 2.01 0 1.02 0 0 Z " fill="#072D65" transform="translate(512,533)"/>
<path d="M0 0 C2 1 2 1 3.125 3.75 C3.91973395 6.70186896 4.17810598 8.97219837 4 12 C2 11 2 11 0.875 8.25 C0.08026605 5.29813104 -0.17810598 3.02780163 0 0 Z " fill="#08295D" transform="translate(329,516)"/>
<path d="M0 0 C-2 2 -2 2 -4.1640625 2.1953125 C-5.38222656 2.16050781 -5.38222656 2.16050781 -6.625 2.125 C-7.44226563 2.10695313 -8.25953125 2.08890625 -9.1015625 2.0703125 C-9.72804688 2.04710937 -10.35453125 2.02390625 -11 2 C-11.33 1.34 -11.66 0.68 -12 0 C-7.91556885 -1.53166168 -4.20544343 -0.63081652 0 0 Z " fill="#042456" transform="translate(920,551)"/>
<path d="M0 0 C0.33 0 0.66 0 1 0 C1 2.64 1 5.28 1 8 C3.31 8.33 5.62 8.66 8 9 C6.3125 10.125 6.3125 10.125 4 11 C1.25 10.125 1.25 10.125 -1 9 C-0.67 6.03 -0.34 3.06 0 0 Z " fill="#114888" transform="translate(154,424)"/>
<path d="M0 0 C-1 3 -1 3 -3.8125 4.75 C-7.13982105 6.05483179 -7.79584277 6.02866653 -11 5 C-9.54462432 4.16151196 -8.08559627 3.32936066 -6.625 2.5 C-5.81289063 2.0359375 -5.00078125 1.571875 -4.1640625 1.09375 C-2 0 -2 0 0 0 Z " fill="#0A295A" transform="translate(763,561)"/>
<path d="M0 0 C0.95465783 2.16967689 1.14401212 3.56328793 0.3984375 5.82421875 C-0.35870385 7.5684743 -1.17609198 9.28627131 -2 11 C-2.33 11 -2.66 11 -3 11 C-2.88590407 9.54077307 -2.75834456 8.08259402 -2.625 6.625 C-2.55539062 5.81289063 -2.48578125 5.00078125 -2.4140625 4.1640625 C-2 2 -2 2 0 0 Z " fill="#062A60" transform="translate(348,509)"/>
<path d="M0 0 C7.42857143 -0.14285714 7.42857143 -0.14285714 11 1 C11 1.66 11 2.32 11 3 C9.54077307 2.88590407 8.08259402 2.75834456 6.625 2.625 C5.40683594 2.52058594 5.40683594 2.52058594 4.1640625 2.4140625 C2 2 2 2 0 0 Z " fill="#073471" transform="translate(142,488)"/>
<path d="M0 0 C0.33 0.99 0.66 1.98 1 3 C-2.3125 4.625 -2.3125 4.625 -6 6 C-6.99 5.34 -7.98 4.68 -9 4 C-8.43410156 3.79503906 -7.86820313 3.59007812 -7.28515625 3.37890625 C-6.55167969 3.10949219 -5.81820312 2.84007812 -5.0625 2.5625 C-4.33160156 2.29566406 -3.60070312 2.02882813 -2.84765625 1.75390625 C-1.01694322 1.14613052 -1.01694322 1.14613052 0 0 Z " fill="#0C376F" transform="translate(926,546)"/>
<path d="M0 0 C0.33 0 0.66 0 1 0 C1.3125 2.25 1.3125 2.25 1 5 C-1.5 7.3125 -1.5 7.3125 -4 9 C-4.66 8.34 -5.32 7.68 -6 7 C-5.195625 6.21625 -4.39125 5.4325 -3.5625 4.625 C-1.01309583 2.28017144 -1.01309583 2.28017144 0 0 Z " fill="#0A3772" transform="translate(261,540)"/>
<path d="M0 0 C2 3 2 3 2 5 C-0.31 5 -2.62 5 -5 5 C-4.67 4.01 -4.34 3.02 -4 2 C-3.01 2 -2.02 2 -1 2 C-0.67 1.34 -0.34 0.68 0 0 Z " fill="#083572" transform="translate(450,507)"/>
<path d="M0 0 C2.3125 0.1875 2.3125 0.1875 4 1 C-0.39453125 5.00390625 -0.39453125 5.00390625 -2 6 C-2.99 5.67 -3.98 5.34 -5 5 C-2.75 2.4375 -2.75 2.4375 0 0 Z " fill="#0B326A" transform="translate(417,491)"/>
<path d="M0 0 C0.66 0.33 1.32 0.66 2 1 C-1.625 6.75 -1.625 6.75 -5 9 C-3.7508258 5.54074837 -2.32472205 2.85306797 0 0 Z " fill="#082C63" transform="translate(754,537)"/>
<path d="M0 0 C0.33 0.99 0.66 1.98 1 3 C0.01 3.495 0.01 3.495 -1 4 C-1 3.34 -1 2.68 -1 2 C-3.64 1.67 -6.28 1.34 -9 1 C-5.64919071 -1.10976881 -3.77897651 -1.0497157 0 0 Z " fill="#103F7C" transform="translate(153,456)"/>
<path d="M0 0 C-2.75 1.625 -2.75 1.625 -6 3 C-8.375 2.1875 -8.375 2.1875 -10 1 C-3.71428571 -1.42857143 -3.71428571 -1.42857143 0 0 Z " fill="#0A3A77" transform="translate(158,546)"/>
<path d="M0 0 C0.66 0 1.32 0 2 0 C1.25 6.75 1.25 6.75 -1 9 C-0.67 6.03 -0.34 3.06 0 0 Z " fill="#092B60" transform="translate(356,481)"/>
<path d="M0 0 C4 1 4 1 4 1 Z " fill="#1A5092" transform="translate(425,572)"/>
<path d="" fill="#1A5393" transform="translate(0,0)"/>
<path d="M0 0 C3 1 3 1 3 1 Z " fill="#1C5090" transform="translate(909,572)"/>
<path d="" fill="#154F93" transform="translate(0,0)"/>
<path d="M0 0 C3 1 3 1 3 1 Z " fill="#114E93" transform="translate(461,537)"/>
<path d="" fill="#114F98" transform="translate(0,0)"/>
<path d="M0 0 C3 1 3 1 3 1 Z " fill="#134B93" transform="translate(205,503)"/>
<path d="M0 0 C2 1 2 1 2 1 Z " fill="#185192" transform="translate(126,591)"/>
<path d="M0 0 C2 1 2 1 2 1 Z " fill="#1B5292" transform="translate(625,572)"/>
<path d="M0 0 C2 1 2 1 2 1 Z " fill="#195699" transform="translate(112,528)"/>
<path d="M0 0 C2 1 2 1 2 1 Z " fill="#14509A" transform="translate(430,491)"/>
<path d="M0 0 C2 1 2 1 2 1 Z " fill="#155298" transform="translate(153,488)"/>
<path d="M0 0 C2 1 2 1 2 1 Z " fill="#155091" transform="translate(712,472)"/>
<path d="M0 0 C2 1 2 1 2 1 Z " fill="#184F91" transform="translate(672,469)"/>
<path d="M0 0 C2 1 2 1 2 1 Z " fill="#1C5392" transform="translate(913,467)"/>
<path d="" fill="#1E5392" transform="translate(0,0)"/>
<path d="" fill="#1A528F" transform="translate(0,0)"/>
<path d="" fill="#18508F" transform="translate(0,0)"/>
<path d="" fill="#155095" transform="translate(0,0)"/>
<path d="" fill="#1D5294" transform="translate(0,0)"/>
<path d="" fill="#195092" transform="translate(0,0)"/>
<path d="" fill="#184F92" transform="translate(0,0)"/>
<path d="" fill="#1A5293" transform="translate(0,0)"/>
<path d="" fill="#1B5394" transform="translate(0,0)"/>
<path d="" fill="#1A4D91" transform="translate(0,0)"/>
<path d="" fill="#195091" transform="translate(0,0)"/>
<path d="" fill="#145295" transform="translate(0,0)"/>
<path d="" fill="#1A5294" transform="translate(0,0)"/>
<path d="" fill="#1B5394" transform="translate(0,0)"/>
<path d="" fill="#1B5193" transform="translate(0,0)"/>
<path d="" fill="#1C5094" transform="translate(0,0)"/>
<path d="" fill="#195191" transform="translate(0,0)"/>
<path d="" fill="#1A4F96" transform="translate(0,0)"/>
<path d="" fill="#195193" transform="translate(0,0)"/>
<path d="" fill="#144E93" transform="translate(0,0)"/>
<path d="" fill="#144F92" transform="translate(0,0)"/>
<path d="" fill="#185093" transform="translate(0,0)"/>
<path d="" fill="#185194" transform="translate(0,0)"/>
<path d="" fill="#175396" transform="translate(0,0)"/>
<path d="" fill="#154D94" transform="translate(0,0)"/>
<path d="" fill="#165195" transform="translate(0,0)"/>
<path d="" fill="#185292" transform="translate(0,0)"/>
<path d="" fill="#154E91" transform="translate(0,0)"/>
<path d="" fill="#165196" transform="translate(0,0)"/>
<path d="" fill="#165194" transform="translate(0,0)"/>
<path d="" fill="#165197" transform="translate(0,0)"/>
<path d="" fill="#135197" transform="translate(0,0)"/>
<path d="" fill="#144F96" transform="translate(0,0)"/>
<path d="" fill="#174F94" transform="translate(0,0)"/>
<path d="" fill="#155094" transform="translate(0,0)"/>
<path d="" fill="#155197" transform="translate(0,0)"/>
<path d="" fill="#145299" transform="translate(0,0)"/>
<path d="" fill="#145296" transform="translate(0,0)"/>
<path d="" fill="#134F95" transform="translate(0,0)"/>
<path d="" fill="#185196" transform="translate(0,0)"/>
<path d="" fill="#154D94" transform="translate(0,0)"/>
<path d="" fill="#145097" transform="translate(0,0)"/>
<path d="" fill="#155398" transform="translate(0,0)"/>
<path d="" fill="#18579D" transform="translate(0,0)"/>
<path d="" fill="#12529C" transform="translate(0,0)"/>
<path d="" fill="#144F93" transform="translate(0,0)"/>
<path d="" fill="#144F95" transform="translate(0,0)"/>
<path d="" fill="#145199" transform="translate(0,0)"/>
<path d="" fill="#145298" transform="translate(0,0)"/>
<path d="" fill="#14529A" transform="translate(0,0)"/>
<path d="" fill="#144E98" transform="translate(0,0)"/>
<path d="" fill="#145197" transform="translate(0,0)"/>
<path d="" fill="#165199" transform="translate(0,0)"/>
<path d="" fill="#155299" transform="translate(0,0)"/>
<path d="" fill="#134E96" transform="translate(0,0)"/>
<path d="" fill="#124F97" transform="translate(0,0)"/>
<path d="" fill="#155198" transform="translate(0,0)"/>
<path d="" fill="#135096" transform="translate(0,0)"/>
<path d="" fill="#124E94" transform="translate(0,0)"/>
<path d="" fill="#135199" transform="translate(0,0)"/>
<path d="" fill="#135199" transform="translate(0,0)"/>
<path d="" fill="#145193" transform="translate(0,0)"/>
<path d="" fill="#145098" transform="translate(0,0)"/>
<path d="" fill="#1A5598" transform="translate(0,0)"/>
<path d="" fill="#135398" transform="translate(0,0)"/>
<path d="" fill="#165195" transform="translate(0,0)"/>
<path d="" fill="#145198" transform="translate(0,0)"/>
<path d="" fill="#185298" transform="translate(0,0)"/>
<path d="" fill="#185294" transform="translate(0,0)"/>
<path d="" fill="#105298" transform="translate(0,0)"/>
<path d="" fill="#165293" transform="translate(0,0)"/>
<path d="" fill="#145197" transform="translate(0,0)"/>
<path d="" fill="#165197" transform="translate(0,0)"/>
<path d="" fill="#175297" transform="translate(0,0)"/>
<path d="" fill="#135297" transform="translate(0,0)"/>
<path d="" fill="#175098" transform="translate(0,0)"/>
<path d="" fill="#165097" transform="translate(0,0)"/>
<path d="" fill="#114F98" transform="translate(0,0)"/>
<path d="" fill="#1B5391" transform="translate(0,0)"/>
<path d="" fill="#155398" transform="translate(0,0)"/>
<path d="" fill="#1F5495" transform="translate(0,0)"/>
<path d="" fill="#114E96" transform="translate(0,0)"/>
<path d="" fill="#195498" transform="translate(0,0)"/>
<path d="" fill="#145096" transform="translate(0,0)"/>
<path d="" fill="#15549C" transform="translate(0,0)"/>
<path d="" fill="#154F96" transform="translate(0,0)"/>
<path d="" fill="#185098" transform="translate(0,0)"/>
<path d="" fill="#175092" transform="translate(0,0)"/>
<path d="" fill="#1A5397" transform="translate(0,0)"/>
<path d="" fill="#185195" transform="translate(0,0)"/>
<path d="" fill="#164F95" transform="translate(0,0)"/>
<path d="" fill="#195296" transform="translate(0,0)"/>
<path d="" fill="#1B5393" transform="translate(0,0)"/>
<path d="" fill="#1A5395" transform="translate(0,0)"/>
<path d="" fill="#1D5394" transform="translate(0,0)"/>
<path d="" fill="#13529D" transform="translate(0,0)"/>
<path d="" fill="#11529B" transform="translate(0,0)"/>
<path d="" fill="#1E528E" transform="translate(0,0)"/>
<path d="" fill="#1E5491" transform="translate(0,0)"/>
</svg>
